<svg width="17" height="12" viewBox="0 0 17 12" fill="none" xmlns="http://www.w3.org/2000/svg">
<path fill-rule="evenodd" clip-rule="evenodd" d="M2.5 0C1.96957 0 1.46086 0.210714 1.08579 0.585786C0.710714 0.960859 0.5 1.46957 0.5 2V6C0.5 6.53043 0.710714 7.03914 1.08579 7.41421C1.46086 7.78929 1.96957 8 2.5 8V2H12.5C12.5 1.46957 12.2893 0.960859 11.9142 0.585786C11.5391 0.210714 11.0304 0 10.5 0H2.5ZM4.5 6C4.5 5.46957 4.71071 4.96086 5.08579 4.58579C5.46086 4.21071 5.96957 4 6.5 4H14.5C15.0304 4 15.5391 4.21071 15.9142 4.58579C16.2893 4.96086 16.5 5.46957 16.5 6V10C16.5 10.5304 16.2893 11.0391 15.9142 11.4142C15.5391 11.7893 15.0304 12 14.5 12H6.5C5.96957 12 5.46086 11.7893 5.08579 11.4142C4.71071 11.0391 4.5 10.5304 4.5 10V6ZM10.5 10C11.0304 10 11.5391 9.78929 11.9142 9.41421C12.2893 9.03914 12.5 8.53043 12.5 8C12.5 7.46957 12.2893 6.96086 11.9142 6.58579C11.5391 6.21071 11.0304 6 10.5 6C9.96957 6 9.46086 6.21071 9.08579 6.58579C8.71071 6.96086 8.5 7.46957 8.5 8C8.5 8.53043 8.71071 9.03914 9.08579 9.41421C9.46086 9.78929 9.96957 10 10.5 10Z" fill="#84919A"/>
</svg>
