<svg width="17" height="12" viewBox="0 0 17 12" fill="none" xmlns="http://www.w3.org/2000/svg">
<path d="M16.3297 4.28577C16.6451 4.28577 16.9011 4.02977 16.9011 3.71434V2.00005C16.9011 1.05491 16.132 0.285767 15.1868 0.285767H11.7583V2.00005C11.7583 2.31548 11.5023 2.57148 11.1868 2.57148C10.8714 2.57148 10.6154 2.31548 10.6154 2.00005V0.285767H2.61541C1.67027 0.285767 0.901123 1.05491 0.901123 2.00005V3.71434C0.901123 4.02977 1.15712 4.28577 1.47255 4.28577C2.41769 4.28577 3.18684 5.05491 3.18684 6.00005C3.18684 6.9452 2.41769 7.71434 1.47255 7.71434C1.15712 7.71434 0.901123 7.97034 0.901123 8.28577V10.0001C0.901123 10.9452 1.67027 11.7143 2.61541 11.7143H10.6154V10.0001C10.6154 9.68462 10.8714 9.42862 11.1868 9.42862C11.5023 9.42862 11.7583 9.68462 11.7583 10.0001V11.7143H15.1868C16.132 11.7143 16.9011 10.9452 16.9011 10.0001V8.28577C16.9011 7.97034 16.6451 7.71434 16.3297 7.71434C15.3846 7.71434 14.6154 6.9452 14.6154 6.00005C14.6154 5.05491 15.3846 4.28577 16.3297 4.28577ZM11.7583 7.71434C11.7583 8.02977 11.5023 8.28577 11.1868 8.28577C10.8714 8.28577 10.6154 8.02977 10.6154 7.71434V7.14291C10.6154 6.82748 10.8714 6.57148 11.1868 6.57148C11.5023 6.57148 11.7583 6.82748 11.7583 7.14291V7.71434ZM11.7583 4.8572C11.7583 5.17262 11.5023 5.42862 11.1868 5.42862C10.8714 5.42862 10.6154 5.17262 10.6154 4.8572V4.28577C10.6154 3.97034 10.8714 3.71434 11.1868 3.71434C11.5023 3.71434 11.7583 3.97034 11.7583 4.28577V4.8572Z" fill="#84909A"/>
</svg>
