<svg width="15" height="16" viewBox="0 0 15 16" fill="none" xmlns="http://www.w3.org/2000/svg">
<path d="M8.5 15C8.50009 15.1704 8.54372 15.3379 8.62674 15.4867C8.70977 15.6355 8.82944 15.7607 8.97439 15.8502C9.11935 15.9398 9.28479 15.9908 9.45501 15.9985C9.62523 16.0061 9.79458 15.9702 9.947 15.894L13.947 13.894C14.1131 13.811 14.2528 13.6834 14.3504 13.5255C14.4481 13.3676 14.4999 13.1857 14.5 13V7.23602C14.4999 7.06562 14.4563 6.89808 14.3733 6.74929C14.2902 6.60049 14.1706 6.47538 14.0256 6.38582C13.8806 6.29626 13.7152 6.24523 13.545 6.23756C13.3748 6.2299 13.2054 6.26585 13.053 6.34202L9.053 8.34202C8.88692 8.42501 8.74722 8.55259 8.64955 8.71049C8.55188 8.86838 8.5001 9.05035 8.5 9.23602V15ZM12.711 4.27602C12.8769 4.19288 13.0164 4.06523 13.1138 3.90734C13.2113 3.74946 13.2629 3.56757 13.2629 3.38202C13.2629 3.19647 13.2113 3.01457 13.1138 2.85669C13.0164 2.69881 12.8769 2.57115 12.711 2.48802L7.947 0.106015C7.8082 0.0366567 7.65516 0.000549316 7.5 0.000549316C7.34484 0.000549316 7.1918 0.0366567 7.053 0.106015L2.289 2.48802C2.12312 2.57115 1.98364 2.69881 1.88617 2.85669C1.78869 3.01457 1.73707 3.19647 1.73707 3.38202C1.73707 3.56757 1.78869 3.74946 1.88617 3.90734C1.98364 4.06523 2.12312 4.19288 2.289 4.27602L7.053 6.65802C7.1918 6.72737 7.34484 6.76348 7.5 6.76348C7.65516 6.76348 7.8082 6.72737 7.947 6.65802L12.711 4.27602V4.27602ZM1.947 6.34202C1.79458 6.26585 1.62522 6.2299 1.45501 6.23756C1.28479 6.24523 1.11935 6.29626 0.974394 6.38582C0.829438 6.47538 0.709769 6.60049 0.626744 6.74929C0.543719 6.89808 0.500091 7.06562 0.5 7.23602V13C0.500099 13.1857 0.551883 13.3676 0.649552 13.5255C0.747222 13.6834 0.886919 13.811 1.053 13.894L5.053 15.894C5.20542 15.9702 5.37477 16.0061 5.54499 15.9985C5.71521 15.9908 5.88065 15.9398 6.02561 15.8502C6.17056 15.7607 6.29023 15.6355 6.37326 15.4867C6.45628 15.3379 6.49991 15.1704 6.5 15V9.23602C6.4999 9.05035 6.44812 8.86838 6.35045 8.71049C6.25278 8.55259 6.11308 8.42501 5.947 8.34202L1.947 6.34202V6.34202Z" fill="#84919A"/>
</svg>
