<svg width="21" height="21" viewBox="0 0 21 21" fill="none" xmlns="http://www.w3.org/2000/svg">
<path d="M11.0244 10.769C10.8661 10.769 10.7078 10.7106 10.5828 10.5856C10.3411 10.344 10.3411 9.94398 10.5828 9.70232L17.416 2.86911C17.6576 2.62745 18.0576 2.62745 18.2993 2.86911C18.5409 3.11078 18.5409 3.51077 18.2993 3.75243L11.4661 10.5856C11.3411 10.7106 11.1827 10.769 11.0244 10.769Z" fill="#292D32"/>
<path d="M18.5243 7.26902C18.1826 7.26902 17.8993 6.98569 17.8993 6.64403V3.2691H14.5243C14.1827 3.2691 13.8994 2.98577 13.8994 2.64411C13.8994 2.30245 14.1827 2.01912 14.5243 2.01912H18.5243C18.8659 2.01912 19.1493 2.30245 19.1493 2.64411V6.64403C19.1493 6.98569 18.8659 7.26902 18.5243 7.26902Z" fill="#292D32"/>
<path d="M12.6911 19.9355H7.69115C3.16623 19.9355 1.23293 18.0022 1.23293 13.4772V8.47733C1.23293 3.95242 3.16623 2.01912 7.69115 2.01912H9.35778C9.69944 2.01912 9.98277 2.30245 9.98277 2.64411C9.98277 2.98577 9.69944 3.2691 9.35778 3.2691H7.69115C3.84955 3.2691 2.48291 4.63574 2.48291 8.47733V13.4772C2.48291 17.3188 3.84955 18.6855 7.69115 18.6855H12.6911C16.5326 18.6855 17.8993 17.3188 17.8993 13.4772V11.8106C17.8993 11.4689 18.1826 11.1856 18.5243 11.1856C18.8659 11.1856 19.1493 11.4689 19.1493 11.8106V13.4772C19.1493 18.0022 17.216 19.9355 12.6911 19.9355Z" fill="#292D32"/>
</svg>
