<svg width="17" height="17" viewBox="0 0 17 17" fill="none" xmlns="http://www.w3.org/2000/svg">
<path d="M14.5858 8.60953H13.4429V5.56191C13.4429 4.72381 12.7572 4.0381 11.9191 4.0381H8.87149V2.89524C8.87149 1.82857 8.0334 0.990479 6.96673 0.990479C5.90006 0.990479 5.06197 1.82857 5.06197 2.89524V4.0381H2.01435C1.17625 4.0381 0.49054 4.72381 0.49054 5.56191V8.45715H1.6334C2.77625 8.45715 3.69054 9.37143 3.69054 10.5143C3.69054 11.6571 2.77625 12.5714 1.6334 12.5714H0.49054V15.4667C0.49054 16.3048 1.17625 16.9905 2.01435 16.9905H4.90959V15.8476C4.90959 14.7048 5.82387 13.7905 6.96673 13.7905C8.10959 13.7905 9.02387 14.7048 9.02387 15.8476V16.9905H11.9191C12.7572 16.9905 13.4429 16.3048 13.4429 15.4667V12.419H14.5858C15.6524 12.419 16.4905 11.581 16.4905 10.5143C16.4905 9.44762 15.6524 8.60953 14.5858 8.60953Z" fill="#EE2FB8"/>
</svg>
