<svg width="17" height="17" viewBox="0 0 17 17" fill="none" xmlns="http://www.w3.org/2000/svg">
<path d="M12.5 0.91333H4.5C2.1 0.91333 0.5 2.51333 0.5 4.91333V9.71333C0.5 12.1133 2.1 13.7133 4.5 13.7133V15.4173C4.5 16.0573 5.212 16.4413 5.74 16.0813L9.3 13.7133H12.5C14.9 13.7133 16.5 12.1133 16.5 9.71333V4.91333C16.5 2.51333 14.9 0.91333 12.5 0.91333ZM8.5 10.6493C8.164 10.6493 7.9 10.3773 7.9 10.0493C7.9 9.72133 8.164 9.44933 8.5 9.44933C8.836 9.44933 9.1 9.72133 9.1 10.0493C9.1 10.3773 8.836 10.6493 8.5 10.6493ZM9.508 7.32933C9.196 7.53733 9.1 7.67333 9.1 7.89733V8.06533C9.1 8.39333 8.828 8.66533 8.5 8.66533C8.172 8.66533 7.9 8.39333 7.9 8.06533V7.89733C7.9 6.96933 8.58 6.51333 8.836 6.33733C9.132 6.13733 9.228 6.00133 9.228 5.79333C9.228 5.39333 8.9 5.06533 8.5 5.06533C8.1 5.06533 7.772 5.39333 7.772 5.79333C7.772 6.12133 7.5 6.39333 7.172 6.39333C6.844 6.39333 6.572 6.12133 6.572 5.79333C6.572 4.72933 7.436 3.86533 8.5 3.86533C9.564 3.86533 10.428 4.72933 10.428 5.79333C10.428 6.70533 9.756 7.16133 9.508 7.32933Z" fill="#84909A"/>
</svg>
