<svg width="25" height="24" viewBox="0 0 25 24" fill="none" xmlns="http://www.w3.org/2000/svg">
<path d="M10.6665 4.00024H5.66661C5.02331 4.00024 4.5 4.52355 4.5 5.16685V8.16681C4.5 8.81023 5.02331 9.33354 5.66661 9.33354H10.6665C11.31 9.33354 11.8333 8.81023 11.8333 8.16681V5.16685C11.8333 4.52355 11.31 4.00024 10.6665 4.00024Z" fill="#84909A"/>
<path d="M10.6665 10.6667H5.66661C5.02331 10.6667 4.5 11.1901 4.5 11.8335V18.8334C4.5 19.4767 5.02331 20 5.66661 20H10.6665C11.31 20 11.8333 19.4767 11.8333 18.8334V11.8335C11.8333 11.1901 11.31 10.6667 10.6665 10.6667Z" fill="#84909A"/>
<path d="M19.3332 14.6667H14.3333C13.6899 14.6667 13.1666 15.1901 13.1666 15.8335V18.8334C13.1666 19.4767 13.6899 20 14.3333 20H19.3332C19.9765 20 20.4998 19.4767 20.4998 18.8334V15.8335C20.4998 15.1901 19.9765 14.6667 19.3332 14.6667Z" fill="#84909A"/>
<path d="M19.3332 4.00024H14.3333C13.6899 4.00024 13.1666 4.52355 13.1666 5.16685V12.1667C13.1666 12.8102 13.6899 13.3335 14.3333 13.3335H19.3332C19.9765 13.3335 20.4998 12.8102 20.4998 12.1667V5.16685C20.4998 4.52355 19.9765 4.00024 19.3332 4.00024Z" fill="#84909A"/>
</svg>
