<svg width="17" height="17" viewBox="0 0 17 17" fill="none" xmlns="http://www.w3.org/2000/svg">
<path d="M13.7752 3.56307H16.2952L13.2038 0.471641V2.99164C13.2038 3.14319 13.264 3.28854 13.3712 3.3957C13.4783 3.50286 13.6237 3.56307 13.7752 3.56307Z" fill="#84909A"/>
<path d="M13.7751 4.70595C13.3205 4.70595 12.8844 4.52534 12.563 4.20385C12.2415 3.88236 12.0609 3.44632 12.0609 2.99166V0.134521H5.77514C5.32048 0.134521 4.88445 0.315133 4.56295 0.636624C4.24146 0.958115 4.06085 1.39415 4.06085 1.84881V3.56309C4.9383 3.56516 5.79662 3.81972 6.53332 4.29636C7.27003 4.773 7.85399 5.4516 8.2155 6.25112C8.577 7.05064 8.70076 7.93731 8.57202 8.80527C8.44327 9.67322 8.06745 10.4858 7.48942 11.1459V15.5631C7.49015 15.7582 7.45529 15.9519 7.38657 16.1345H14.918C15.3727 16.1345 15.8087 15.9539 16.1302 15.6324C16.4517 15.3109 16.6323 14.8749 16.6323 14.4202V4.70595H13.7751ZM8.06085 4.13452C8.06085 3.98297 8.12106 3.83762 8.22822 3.73046C8.33538 3.6233 8.48073 3.56309 8.63228 3.56309H10.3466C10.4981 3.56309 10.6435 3.6233 10.7506 3.73046C10.8578 3.83762 10.918 3.98297 10.918 4.13452C10.918 4.28607 10.8578 4.43142 10.7506 4.53858C10.6435 4.64575 10.4981 4.70595 10.3466 4.70595H8.63228C8.48073 4.70595 8.33538 4.64575 8.22822 4.53858C8.12106 4.43142 8.06085 4.28607 8.06085 4.13452ZM13.7751 13.2774H9.20371C9.05216 13.2774 8.90681 13.2172 8.79965 13.11C8.69248 13.0028 8.63228 12.8575 8.63228 12.7059C8.63228 12.5544 8.69248 12.4091 8.79965 12.3019C8.90681 12.1947 9.05216 12.1345 9.20371 12.1345H13.7751C13.9267 12.1345 14.072 12.1947 14.1792 12.3019C14.2864 12.4091 14.3466 12.5544 14.3466 12.7059C14.3466 12.8575 14.2864 13.0028 14.1792 13.11C14.072 13.2172 13.9267 13.2774 13.7751 13.2774ZM13.7751 10.4202H10.3466C10.195 10.4202 10.0497 10.36 9.9425 10.2529C9.83534 10.1457 9.77514 10.0004 9.77514 9.84881C9.77514 9.69725 9.83534 9.55191 9.9425 9.44475C10.0497 9.33758 10.195 9.27738 10.3466 9.27738H13.7751C13.9267 9.27738 14.072 9.33758 14.1792 9.44475C14.2864 9.55191 14.3466 9.69725 14.3466 9.84881C14.3466 10.0004 14.2864 10.1457 14.1792 10.2529C14.072 10.36 13.9267 10.4202 13.7751 10.4202ZM13.7751 7.56309H10.3466C10.195 7.56309 10.0497 7.50289 9.9425 7.39572C9.83534 7.28856 9.77514 7.14322 9.77514 6.99166C9.77514 6.84011 9.83534 6.69477 9.9425 6.5876C10.0497 6.48044 10.195 6.42024 10.3466 6.42024H13.7751C13.9267 6.42024 14.072 6.48044 14.1792 6.5876C14.2864 6.69477 14.3466 6.84011 14.3466 6.99166C14.3466 7.14322 14.2864 7.28856 14.1792 7.39572C14.072 7.50289 13.9267 7.56309 13.7751 7.56309Z" fill="#84909A"/>
<path d="M1.77515 12.0888V15.5631C1.77571 15.6759 1.80965 15.7861 1.8727 15.8796C1.93575 15.9732 2.02508 16.046 2.12943 16.0888C2.2335 16.1326 2.34819 16.1446 2.45904 16.1232C2.56989 16.1018 2.67193 16.0481 2.75229 15.9688L4.06086 14.6546L5.36943 15.9688C5.42283 16.0218 5.48615 16.0637 5.55577 16.0921C5.62539 16.1206 5.69994 16.135 5.77515 16.1346C5.8501 16.1365 5.92447 16.1208 5.99229 16.0888C6.09664 16.046 6.18597 15.9732 6.24902 15.8796C6.31207 15.7861 6.34601 15.6759 6.34658 15.5631V12.0888C5.65259 12.4929 4.8639 12.7058 4.06086 12.7058C3.25782 12.7058 2.46913 12.4929 1.77515 12.0888Z" fill="#84909A"/>
<path d="M4.0609 11.5631C5.95444 11.5631 7.48947 10.0281 7.48947 8.13456C7.48947 6.24101 5.95444 4.70599 4.0609 4.70599C2.16735 4.70599 0.632324 6.24101 0.632324 8.13456C0.632324 10.0281 2.16735 11.5631 4.0609 11.5631Z" fill="#84909A"/>
</svg>
