<svg width="28" height="28" viewBox="0 0 28 28" fill="none" xmlns="http://www.w3.org/2000/svg">
<path d="M11.9206 25.9918C11.2456 25.9918 10.6044 25.6543 10.1656 25.058L8.81565 23.258C8.81565 23.2693 8.75939 23.2355 8.73689 23.2355H8.32064C4.47314 23.2355 2.08813 22.1893 2.08813 17.003V12.503C2.08813 7.76677 4.9794 6.52927 7.4094 6.31552C7.6794 6.28177 7.99439 6.27051 8.32064 6.27051H15.5206C19.5931 6.27051 21.7531 8.43052 21.7531 12.503V17.003C21.7531 17.3293 21.7419 17.6443 21.6969 17.948C21.4944 20.3443 20.2569 23.2355 15.5206 23.2355H15.0706L13.6756 25.058C13.2369 25.6543 12.5956 25.9918 11.9206 25.9918ZM8.32064 7.95801C8.06189 7.95801 7.81439 7.96926 7.57814 7.99176C4.96814 8.21676 3.77563 9.64552 3.77563 12.503V17.003C3.77563 20.8618 4.96814 21.548 8.32064 21.548H8.77064C9.27689 21.548 9.85063 21.8293 10.1656 22.2343L11.5156 24.0455C11.7631 24.383 12.0781 24.383 12.3256 24.0455L13.6756 22.2455C14.0019 21.8068 14.5194 21.548 15.0706 21.548H15.5206C18.3781 21.548 19.8069 20.3443 20.0206 17.7793C20.0544 17.5093 20.0656 17.2618 20.0656 17.003V12.503C20.0656 9.36427 18.6594 7.95801 15.5206 7.95801H8.32064V7.95801Z" fill="#4F4F4F"/>
<path d="M11.9209 16.328C11.2909 16.328 10.7959 15.8218 10.7959 15.203C10.7959 14.5843 11.3021 14.078 11.9209 14.078C12.5396 14.078 13.0459 14.5843 13.0459 15.203C13.0459 15.8218 12.5509 16.328 11.9209 16.328Z" fill="#4F4F4F"/>
<path d="M15.5206 16.328C14.8906 16.328 14.3956 15.8218 14.3956 15.203C14.3956 14.5843 14.9018 14.078 15.5206 14.078C16.1393 14.078 16.6456 14.5843 16.6456 15.203C16.6456 15.8218 16.1393 16.328 15.5206 16.328Z" fill="#4F4F4F"/>
<path d="M8.33167 16.328C7.70167 16.328 7.20667 15.8218 7.20667 15.203C7.20667 14.5843 7.71292 14.078 8.33167 14.078C8.95042 14.078 9.45667 14.5843 9.45667 15.203C9.45667 15.8218 8.95042 16.328 8.33167 16.328Z" fill="#4F4F4F"/>
<path d="M20.8645 18.6905C20.6395 18.6905 20.4145 18.6005 20.257 18.4318C20.077 18.2518 19.9983 17.993 20.032 17.7455C20.0658 17.5093 20.077 17.2618 20.077 17.003V12.503C20.077 9.36427 18.6708 7.95801 15.532 7.95801H8.33202C8.07327 7.95801 7.8258 7.96926 7.58955 7.99176C7.34205 8.02551 7.08328 7.93549 6.90328 7.76674C6.72328 7.58674 6.62202 7.33927 6.64452 7.09177C6.84702 4.66177 8.09577 1.77051 12.832 1.77051H20.032C24.1045 1.77051 26.2645 3.93052 26.2645 8.00302V12.503C26.2645 17.2393 23.3733 18.4768 20.9433 18.6905C20.9095 18.6905 20.887 18.6905 20.8645 18.6905ZM8.46705 6.27051H15.5208C19.5933 6.27051 21.7533 8.43052 21.7533 12.503V16.8568C23.6658 16.3843 24.5658 14.978 24.5658 12.503V8.00302C24.5658 4.86427 23.1595 3.45801 20.0208 3.45801H12.8208C10.3458 3.45801 8.9508 4.35801 8.46705 6.27051Z" fill="#4F4F4F"/>
</svg>
