<svg width="22" height="23" viewBox="0 0 22 23" fill="none" xmlns="http://www.w3.org/2000/svg">
<path d="M15.5833 2.90497H6.41665C3.66665 2.90497 1.83331 4.7383 1.83331 7.4883V12.9883C1.83331 15.7383 3.66665 17.5716 6.41665 17.5716V19.5241C6.41665 20.2575 7.23248 20.6975 7.83748 20.285L11.9166 17.5716H15.5833C18.3333 17.5716 20.1666 15.7383 20.1666 12.9883V7.4883C20.1666 4.7383 18.3333 2.90497 15.5833 2.90497ZM11 14.0608C10.615 14.0608 10.3125 13.7491 10.3125 13.3733C10.3125 12.9975 10.615 12.6858 11 12.6858C11.385 12.6858 11.6875 12.9975 11.6875 13.3733C11.6875 13.7491 11.385 14.0608 11 14.0608ZM12.155 10.2566C11.7975 10.495 11.6875 10.6508 11.6875 10.9075V11.1C11.6875 11.4758 11.3758 11.7875 11 11.7875C10.6241 11.7875 10.3125 11.4758 10.3125 11.1V10.9075C10.3125 9.84413 11.0916 9.32163 11.385 9.11997C11.7241 8.8908 11.8341 8.73497 11.8341 8.49663C11.8341 8.0383 11.4583 7.66247 11 7.66247C10.5416 7.66247 10.1658 8.0383 10.1658 8.49663C10.1658 8.87247 9.85415 9.18413 9.47831 9.18413C9.10248 9.18413 8.79081 8.87247 8.79081 8.49663C8.79081 7.27747 9.78081 6.28747 11 6.28747C12.2191 6.28747 13.2091 7.27747 13.2091 8.49663C13.2091 9.54163 12.4391 10.0641 12.155 10.2566Z" fill="#B0BABF"/>
</svg>
