<svg width="22" height="23" viewBox="0 0 22 23" fill="none" xmlns="http://www.w3.org/2000/svg">
<path d="M18.5075 13.5658L17.4717 11.8425C17.2425 11.4666 17.0409 10.7425 17.0409 10.3025V8.58831C17.0409 5.26081 14.3367 2.55664 11.0184 2.55664C7.69086 2.56581 4.98669 5.26081 4.98669 8.58831V10.2933C4.98669 10.7333 4.78502 11.4575 4.56502 11.8333L3.52919 13.5566C3.13502 14.2258 3.04336 14.9866 3.29086 15.6466C3.53836 16.3158 4.09752 16.8475 4.83086 17.0858C5.82086 17.4158 6.82002 17.6541 7.83752 17.8283C7.93836 17.8466 8.03919 17.8558 8.14002 17.8741C8.26836 17.8925 8.40586 17.9108 8.54336 17.9291C8.78169 17.9658 9.02002 17.9933 9.26752 18.0116C9.84502 18.0666 10.4317 18.0941 11.0184 18.0941C11.5959 18.0941 12.1734 18.0666 12.7417 18.0116C12.9525 17.9933 13.1634 17.975 13.365 17.9475C13.53 17.9291 13.695 17.9108 13.86 17.8833C13.9609 17.8741 14.0617 17.8558 14.1625 17.8375C15.1892 17.6725 16.2067 17.4158 17.1967 17.0858C17.9025 16.8475 18.4434 16.3158 18.7 15.6375C18.9567 14.95 18.8834 14.1983 18.5075 13.5658ZM11.6875 9.84414C11.6875 10.2291 11.3759 10.5408 10.9909 10.5408C10.6059 10.5408 10.2942 10.2291 10.2942 9.84414V7.00247C10.2942 6.61747 10.6059 6.30581 10.9909 6.30581C11.3759 6.30581 11.6875 6.61747 11.6875 7.00247V9.84414Z" fill="#B0BABF"/>
<path d="M13.5941 19.02C13.2091 20.0833 12.1916 20.8442 11 20.8442C10.2758 20.8442 9.56081 20.5508 9.05664 20.0283C8.76331 19.7533 8.54331 19.3867 8.41498 19.0108C8.53414 19.0292 8.65331 19.0383 8.78164 19.0567C8.99248 19.0842 9.21248 19.1117 9.43248 19.13C9.95498 19.1758 10.4866 19.2033 11.0183 19.2033C11.5408 19.2033 12.0633 19.1758 12.5766 19.13C12.7691 19.1117 12.9616 19.1025 13.145 19.075C13.2916 19.0567 13.4383 19.0383 13.5941 19.02Z" fill="#B0BABF"/>
</svg>
