<svg width="19" height="19" viewBox="0 0 19 19" fill="none" xmlns="http://www.w3.org/2000/svg">
<path d="M15.2162 7.25628C14.735 6.72488 14.0097 6.41609 13.0044 6.30838V5.76262C13.0044 4.77881 12.5879 3.8309 11.8554 3.17024C11.1158 2.49522 10.1535 2.17925 9.15532 2.27261C7.43904 2.43777 5.99564 4.0966 5.99564 5.89188V6.30838C4.99028 6.41609 4.26499 6.72488 3.78386 7.25628C3.08729 8.03184 3.10884 9.06592 3.18783 9.78403L3.69051 13.7839C3.84131 15.1842 4.40862 16.6204 7.49648 16.6204H11.5035C14.5914 16.6204 15.1587 15.1842 15.3095 13.7911L15.8122 9.77685C15.8912 9.06592 15.9055 8.03184 15.2162 7.25628ZM9.25585 3.27078C9.97396 3.20615 10.6562 3.42876 11.1876 3.90989C11.7118 4.38385 12.0062 5.05887 12.0062 5.76262V6.26529H6.99381V5.89188C6.99381 4.61364 8.04943 3.38567 9.25585 3.27078ZM6.92918 10.2652H6.922C6.52704 10.2652 6.20389 9.94201 6.20389 9.54705C6.20389 9.15209 6.52704 8.82894 6.922 8.82894C7.32414 8.82894 7.64729 9.15209 7.64729 9.54705C7.64729 9.94201 7.32414 10.2652 6.92918 10.2652ZM11.9559 10.2652H11.9488C11.5538 10.2652 11.2307 9.94201 11.2307 9.54705C11.2307 9.15209 11.5538 8.82894 11.9488 8.82894C12.3509 8.82894 12.6741 9.15209 12.6741 9.54705C12.6741 9.94201 12.3509 10.2652 11.9559 10.2652Z" fill="#84909A"/>
</svg>
