<svg width="19" height="19" viewBox="0 0 19 19" fill="none" xmlns="http://www.w3.org/2000/svg">
<path d="M14.8859 6.20785L13.8159 7.27783L11.6616 5.1235L12.7315 4.05352C13.0331 3.75191 13.4209 3.60829 13.8087 3.60829C14.1965 3.60829 14.5843 3.75191 14.8859 4.05352C15.4819 4.64955 15.4819 5.61182 14.8859 6.20785Z" fill="#84909A"/>
<path d="M13.3131 7.78769L5.55039 15.5433C4.95436 16.1393 3.99209 16.1393 3.39606 15.5433C2.80003 14.9472 2.80003 13.985 3.39606 13.3889L11.1588 5.63336L13.3131 7.78769Z" fill="#84909A"/>
<path d="M8.02791 3.3354L8.32233 2.33723C8.35106 2.24388 8.32233 2.14334 8.2577 2.07153C8.19307 1.99972 8.07818 1.971 7.98482 1.99972L6.98665 2.29415L5.98848 1.99972C5.89512 1.971 5.79459 1.99972 5.72278 2.06435C5.65097 2.13616 5.62942 2.2367 5.65815 2.33005L5.94539 3.3354L5.65097 4.33358C5.62224 4.42693 5.65097 4.52747 5.7156 4.59928C5.78741 4.67109 5.88794 4.69263 5.9813 4.66391L6.98665 4.37666L7.98482 4.67109C8.01355 4.67827 8.03509 4.68545 8.06381 4.68545C8.13562 4.68545 8.20025 4.65672 8.2577 4.60646C8.32951 4.53465 8.35106 4.43411 8.32233 4.34076L8.02791 3.3354Z" fill="#84909A"/>
<path d="M5.15541 7.64406L5.44983 6.64589C5.47856 6.55253 5.44983 6.452 5.3852 6.38019C5.31339 6.30838 5.21286 6.28683 5.1195 6.31556L4.11415 6.6028L3.11598 6.30838C3.02263 6.27965 2.92209 6.30838 2.85028 6.37301C2.77847 6.44482 2.75693 6.54535 2.78565 6.63871L3.07289 7.64406L2.77847 8.64223C2.74974 8.73558 2.77847 8.83612 2.8431 8.90793C2.91491 8.97974 3.01544 9.00129 3.1088 8.97256L4.10697 8.67814L5.10514 8.97256C5.12669 8.97974 5.15541 8.97974 5.18413 8.97974C5.25594 8.97974 5.32057 8.95102 5.37802 8.90075C5.44983 8.82894 5.47138 8.7284 5.44265 8.63505L5.15541 7.64406Z" fill="#84909A"/>
<path d="M15.9271 11.2346L16.2215 10.2364C16.2502 10.1431 16.2215 10.0426 16.1569 9.97074C16.0851 9.89893 15.9845 9.87738 15.8912 9.90611L14.893 10.2005L13.8948 9.90611C13.8015 9.87738 13.7009 9.90611 13.6291 9.97074C13.5573 10.0426 13.5358 10.1431 13.5645 10.2364L13.8589 11.2346L13.5645 12.2328C13.5358 12.3261 13.5645 12.4267 13.6291 12.4985C13.7009 12.5703 13.8015 12.5918 13.8948 12.5631L14.893 12.2687L15.8912 12.5631C15.9127 12.5703 15.9414 12.5703 15.9702 12.5703C16.042 12.5703 16.1066 12.5416 16.1641 12.4913C16.2359 12.4195 16.2574 12.319 16.2287 12.2256L15.9271 11.2346Z" fill="#84909A"/>
</svg>
