<svg width="17" height="16" viewBox="0 0 17 16" fill="none" xmlns="http://www.w3.org/2000/svg">
<path d="M15.361 5.64379C13.8269 5.64379 13.1997 4.55892 13.9625 3.22826C14.4032 2.45698 14.1405 1.47382 13.3692 1.03309L11.9029 0.194007C11.2334 -0.204345 10.3689 0.0329711 9.97051 0.702541L9.87728 0.863576C9.11448 2.19424 7.8601 2.19424 7.08882 0.863576L6.99559 0.702541C6.61419 0.0329711 5.74968 -0.204345 5.08011 0.194007L3.61384 1.03309C2.84257 1.47382 2.57982 2.46546 3.02055 3.23673C3.79183 4.55892 3.16464 5.64379 1.63056 5.64379C0.749101 5.64379 0.0202026 6.36422 0.0202026 7.25415V8.74585C0.0202026 9.62731 0.740626 10.3562 1.63056 10.3562C3.16464 10.3562 3.79183 11.4411 3.02055 12.7717C2.57982 13.543 2.84257 14.5262 3.61384 14.9669L5.08011 15.806C5.74968 16.2043 6.61419 15.967 7.01254 15.2975L7.10577 15.1364C7.86857 13.8058 9.12296 13.8058 9.89423 15.1364L9.98747 15.2975C10.3858 15.967 11.2503 16.2043 11.9199 15.806L13.3862 14.9669C14.1574 14.5262 14.4202 13.5345 13.9795 12.7717C13.2082 11.4411 13.8354 10.3562 15.3694 10.3562C16.2509 10.3562 16.9798 9.63578 16.9798 8.74585V7.25415C16.9713 6.37269 16.2509 5.64379 15.361 5.64379ZM8.49577 10.7546C6.97864 10.7546 5.74121 9.51713 5.74121 8C5.74121 6.48287 6.97864 5.24544 8.49577 5.24544C10.0129 5.24544 11.2503 6.48287 11.2503 8C11.2503 9.51713 10.0129 10.7546 8.49577 10.7546Z" fill="#84909A"/>
</svg>
