<svg width="18" height="16" viewBox="0 0 18 16" fill="none" xmlns="http://www.w3.org/2000/svg">
<path d="M15.861 5.64379C14.3269 5.64379 13.6997 4.55892 14.4625 3.22826C14.9032 2.45698 14.6405 1.47382 13.8692 1.03309L12.4029 0.194007C11.7334 -0.204345 10.8689 0.0329711 10.4705 0.702541L10.3773 0.863576C9.61448 2.19424 8.3601 2.19424 7.58882 0.863576L7.49559 0.702541C7.11419 0.0329711 6.24968 -0.204345 5.58011 0.194007L4.11384 1.03309C3.34257 1.47382 3.07982 2.46546 3.52055 3.23673C4.29183 4.55892 3.66464 5.64379 2.13056 5.64379C1.2491 5.64379 0.520203 6.36422 0.520203 7.25415V8.74585C0.520203 9.62731 1.24063 10.3562 2.13056 10.3562C3.66464 10.3562 4.29183 11.4411 3.52055 12.7717C3.07982 13.543 3.34257 14.5262 4.11384 14.9669L5.58011 15.806C6.24968 16.2043 7.11419 15.967 7.51254 15.2975L7.60577 15.1364C8.36857 13.8058 9.62296 13.8058 10.3942 15.1364L10.4875 15.2975C10.8858 15.967 11.7503 16.2043 12.4199 15.806L13.8862 14.9669C14.6574 14.5262 14.9202 13.5345 14.4795 12.7717C13.7082 11.4411 14.3354 10.3562 15.8694 10.3562C16.7509 10.3562 17.4798 9.63578 17.4798 8.74585V7.25415C17.4713 6.37269 16.7509 5.64379 15.861 5.64379ZM8.99577 10.7546C7.47864 10.7546 6.24121 9.51713 6.24121 8C6.24121 6.48287 7.47864 5.24544 8.99577 5.24544C10.5129 5.24544 11.7503 6.48287 11.7503 8C11.7503 9.51713 10.5129 10.7546 8.99577 10.7546Z" fill="#84909A"/>
</svg>
