<svg width="19" height="16" viewBox="0 0 19 16" fill="none" xmlns="http://www.w3.org/2000/svg">
<path d="M5.65245 9.12992C5.91509 8.82864 5.70114 8.35821 5.30143 8.35821H4.1047C4.09691 8.2398 4.09255 8.12047 4.09255 8.00014C4.09255 5.01844 6.5183 2.59269 9.49996 2.59269C10.9328 2.59269 12.2371 3.15308 13.2057 4.06595L14.8932 2.09179C13.416 0.740442 11.515 0.000244141 9.49996 0.000244141C7.36312 0.000244141 5.35419 0.832398 3.84321 2.34335C2.33226 3.85433 1.5001 5.86326 1.5001 8.0001C1.5001 8.11992 1.5031 8.23925 1.5083 8.35817H0.500292C0.100581 8.35817 -0.113405 8.8286 0.149275 9.12989L2.42322 11.7382L2.90084 12.2861L4.61569 10.319L5.65245 9.12992Z" fill="#84909A"/>
<path d="M18.8507 7.6081L17.1547 5.66264L16.0991 4.4519L14.5921 6.18053L13.3476 7.6081C13.0849 7.90939 13.2989 8.37981 13.6986 8.37981H14.8939C14.6984 11.185 12.354 13.4075 9.50002 13.4075C8.25419 13.4075 7.10556 12.9838 6.19025 12.2732L4.50262 14.2475C5.91641 15.3829 7.66067 16 9.50006 16C11.6369 16 13.6458 15.1679 15.1568 13.6569C16.5779 12.2357 17.3984 10.3741 17.4909 8.37985H18.4997C18.8994 8.37981 19.1134 7.90939 18.8507 7.6081Z" fill="#84909A"/>
</svg>
