<svg width="62" height="61" viewBox="0 0 62 61" fill="none" xmlns="http://www.w3.org/2000/svg">
<path d="M61.1482 30.8299L61.1169 29.5422V5.19747L54.3864 11.928C48.8778 5.18533 40.4985 0.879406 31.1299 0.879406C26.4935 0.875385 21.9193 1.94638 17.7666 4.00828C13.614 6.07017 9.99587 9.06679 7.19659 12.7628L18.2278 23.9103C19.308 21.9146 20.8381 20.1979 22.6969 18.8962C24.606 17.3932 27.3516 16.1645 31.1265 16.1645C31.5829 16.1645 31.9352 16.2165 32.1938 16.338C34.4391 16.5172 36.612 17.2155 38.5414 18.3778C40.4708 19.54 42.1038 21.1345 43.3118 23.0355L35.5018 30.8456L61.1603 30.8508" fill="#1C3AA9"/>
<path d="M30.9373 0.879363L29.6495 0.910603H5.30487L12.0336 7.63936C5.29098 13.148 0.985058 21.5273 0.985058 30.8958C0.981037 35.5322 2.05204 40.1064 4.11393 44.2591C6.17582 48.4118 9.17245 52.0299 12.8684 54.8292L24.0159 43.798C22.0203 42.7178 20.3036 41.1877 19.0019 39.3289C17.4989 37.4198 16.2701 34.6742 16.2701 30.8993C16.2701 30.4429 16.3222 30.0905 16.4437 29.8319C16.6229 27.5867 17.3212 25.4138 18.4834 23.4844C19.6457 21.555 21.2402 19.922 23.1412 18.714L30.9512 26.524L30.9564 0.865479" fill="#4285F4"/>
<path d="M0.988467 30.8958L1.01971 32.1836V56.5473L7.75021 49.8168C13.2589 56.5595 21.6381 60.8654 31.0067 60.8654C35.6431 60.8694 40.2173 59.7984 44.37 57.7365C48.5227 55.6746 52.1407 52.678 54.94 48.982L43.9088 37.8345C42.8286 39.8302 41.2985 41.5469 39.4398 42.8486C37.5306 44.3516 34.785 45.5803 31.0102 45.5803C30.5537 45.5803 30.2014 45.5283 29.9428 45.4068C27.6975 45.2276 25.5246 44.5293 23.5952 43.367C21.6659 42.2048 20.0328 40.6103 18.8248 38.7093L26.6348 30.8993C16.7421 30.9374 5.57034 30.96 0.976318 30.894" fill="#ABABAB"/>
</svg>
