<svg width="815" height="17" viewBox="0 0 815 17" fill="none" xmlns="http://www.w3.org/2000/svg">
<path d="M16.4155 8.53794L4.3431 15.6617L4.20993 1.64485L16.4155 8.53794Z" fill="#F7F7F7"/>
<path d="M33.7545 8.53794L21.6821 15.6617L21.549 1.64485L33.7545 8.53794Z" fill="#F7F7F7"/>
<path d="M51.0935 8.53794L39.0212 15.6617L38.888 1.64485L51.0935 8.53794Z" fill="#F7F7F7"/>
<path d="M68.4325 8.53794L56.3602 15.6617L56.227 1.64485L68.4325 8.53794Z" fill="#F7F7F7"/>
<path d="M85.7716 8.53794L73.6992 15.6617L73.566 1.64485L85.7716 8.53794Z" fill="#F7F7F7"/>
<path d="M103.111 8.53794L91.0382 15.6617L90.9051 1.64485L103.111 8.53794Z" fill="#F7F7F7"/>
<path d="M120.45 8.53794L108.377 15.6617L108.244 1.64485L120.45 8.53794Z" fill="#F7F7F7"/>
<path d="M137.789 8.53794L125.716 15.6617L125.583 1.64485L137.789 8.53794Z" fill="#F7F7F7"/>
<path d="M155.128 8.53794L143.055 15.6617L142.922 1.64485L155.128 8.53794Z" fill="#F7F7F7"/>
<path d="M172.467 8.53794L160.394 15.6617L160.261 1.64485L172.467 8.53794Z" fill="#F7F7F7"/>
<path d="M189.806 8.53794L177.733 15.6617L177.6 1.64485L189.806 8.53794Z" fill="#F7F7F7"/>
<path d="M207.145 8.53794L195.072 15.6617L194.939 1.64485L207.145 8.53794Z" fill="#F7F7F7"/>
<path d="M224.484 8.53794L212.411 15.6617L212.278 1.64485L224.484 8.53794Z" fill="#F7F7F7"/>
<path d="M241.823 8.53794L229.75 15.6617L229.617 1.64485L241.823 8.53794Z" fill="#F7F7F7"/>
<path d="M259.162 8.53794L247.089 15.6617L246.956 1.64485L259.162 8.53794Z" fill="#F7F7F7"/>
<path d="M276.501 8.53794L264.428 15.6617L264.295 1.64485L276.501 8.53794Z" fill="#F7F7F7"/>
<path d="M293.84 8.53794L281.767 15.6617L281.634 1.64485L293.84 8.53794Z" fill="#F7F7F7"/>
<path d="M311.179 8.53794L299.107 15.6617L298.973 1.64485L311.179 8.53794Z" fill="#F7F7F7"/>
<path d="M328.518 8.53794L316.446 15.6617L316.312 1.64485L328.518 8.53794Z" fill="#F7F7F7"/>
<path d="M345.857 8.53794L333.785 15.6617L333.651 1.64485L345.857 8.53794Z" fill="#F7F7F7"/>
<path d="M363.196 8.53794L351.124 15.6617L350.99 1.64485L363.196 8.53794Z" fill="#F7F7F7"/>
<path d="M380.535 8.53794L368.463 15.6617L368.329 1.64485L380.535 8.53794Z" fill="#F7F7F7"/>
<path d="M397.874 8.53794L385.802 15.6617L385.668 1.64485L397.874 8.53794Z" fill="#F7F7F7"/>
<path d="M415.213 8.53794L403.141 15.6617L403.007 1.64485L415.213 8.53794Z" fill="#F7F7F7"/>
<path d="M432.552 8.53794L420.48 15.6617L420.346 1.64485L432.552 8.53794Z" fill="#F7F7F7"/>
<path d="M449.891 8.53794L437.819 15.6617L437.685 1.64485L449.891 8.53794Z" fill="#F7F7F7"/>
<path d="M467.23 8.53794L455.158 15.6617L455.025 1.64485L467.23 8.53794Z" fill="#F7F7F7"/>
<path d="M484.569 8.53794L472.497 15.6617L472.364 1.64485L484.569 8.53794Z" fill="#F7F7F7"/>
<path d="M501.908 8.53794L489.836 15.6617L489.703 1.64485L501.908 8.53794Z" fill="#F7F7F7"/>
<path d="M519.247 8.53794L507.175 15.6617L507.042 1.64485L519.247 8.53794Z" fill="#F7F7F7"/>
<path d="M536.586 8.53794L524.514 15.6617L524.381 1.64485L536.586 8.53794Z" fill="#F7F7F7"/>
<path d="M553.925 8.53794L541.853 15.6617L541.72 1.64485L553.925 8.53794Z" fill="#F7F7F7"/>
<path d="M571.264 8.53794L559.192 15.6617L559.059 1.64485L571.264 8.53794Z" fill="#F7F7F7"/>
<path d="M588.603 8.53794L576.531 15.6617L576.398 1.64485L588.603 8.53794Z" fill="#F7F7F7"/>
<path d="M605.942 8.53794L593.87 15.6617L593.737 1.64485L605.942 8.53794Z" fill="#F7F7F7"/>
<path d="M623.281 8.53794L611.209 15.6617L611.076 1.64485L623.281 8.53794Z" fill="#F7F7F7"/>
<path d="M640.62 8.53794L628.548 15.6617L628.415 1.64485L640.62 8.53794Z" fill="#F7F7F7"/>
<path d="M657.959 8.53794L645.887 15.6617L645.754 1.64485L657.959 8.53794Z" fill="#F7F7F7"/>
<path d="M675.299 8.53794L663.226 15.6617L663.093 1.64485L675.299 8.53794Z" fill="#F7F7F7"/>
<path d="M692.638 8.53794L680.565 15.6617L680.432 1.64485L692.638 8.53794Z" fill="#F7F7F7"/>
<path d="M709.977 8.53794L697.904 15.6617L697.771 1.64485L709.977 8.53794Z" fill="#F7F7F7"/>
<path d="M727.316 8.53794L715.243 15.6617L715.11 1.64485L727.316 8.53794Z" fill="#F7F7F7"/>
<path d="M744.655 8.53794L732.582 15.6617L732.449 1.64485L744.655 8.53794Z" fill="#F7F7F7"/>
<path d="M761.994 8.53794L749.921 15.6617L749.788 1.64485L761.994 8.53794Z" fill="#F7F7F7"/>
<path d="M779.333 8.53794L767.26 15.6617L767.127 1.64485L779.333 8.53794Z" fill="#F7F7F7"/>
<path d="M796.672 8.53794L784.6 15.6617L784.466 1.64485L796.672 8.53794Z" fill="#F7F7F7"/>
<path d="M814.011 8.53794L801.939 15.6617L801.805 1.64485L814.011 8.53794Z" fill="#F7F7F7"/>
</svg>
