<svg width="68" height="61" viewBox="0 0 68 61" fill="none" xmlns="http://www.w3.org/2000/svg">
<path d="M20.7075 50.429L20.7075 50.429C19.7352 49.6291 18.5153 49.1918 17.2566 49.1918H7.71818C6.05235 49.1918 4.4547 48.53 3.27645 47.352C2.0985 46.174 1.43665 44.5764 1.43665 42.9102V7.64704C1.43665 5.98089 2.0985 4.38324 3.27645 3.20529C4.4547 2.02731 6.05235 1.36548 7.71818 1.36548H7.79119H7.86455H7.93826H8.01232H8.08673H8.16149H8.23659H8.31203H8.38781H8.46393H8.5404H8.6172H8.69433H8.7718H8.84961H8.92775H9.00621H9.08501H9.16413H9.24358H9.32336H9.40346H9.48388H9.56462H9.64569H9.72707H9.80877H9.89078H9.97311H10.0557H10.1387H10.222H10.3055H10.3894H10.4736H10.5581H10.6429H10.728H10.8134H10.899H10.985H11.0713H11.1579H11.2448H11.3319H11.4194H11.5071H11.5952H11.6835H11.7721H11.861H11.9502H12.0396H12.1294H12.2194H12.3097H12.4002H12.4911H12.5822H12.6735H12.7652H12.8571H12.9493H13.0418H13.1345H13.2275H13.3207H13.4142H13.508H13.602H13.6963H13.7908H13.8856H13.9806H14.0759H14.1714H14.2672H14.3633H14.4595H14.5561H14.6528H14.7498H14.8471H14.9445H15.0423H15.1402H15.2384H15.3368H15.4355H15.5344H15.6335H15.7328H15.8324H15.9322H16.0322H16.1324H16.2329H16.3335H16.4344H16.5355H16.6369H16.7384H16.8402H16.9421H17.0443H17.1467H17.2492H17.352H17.455H17.5582H17.6616H17.7652H17.869H17.973H18.0772H18.1816H18.2861H18.3909H18.4959H18.601H18.7063H18.8119H18.9176H19.0235H19.1295H19.2358H19.3422H19.4488H19.5556H19.6625H19.7697H19.877H19.9844H20.0921H20.1999H20.3079H20.416H20.5243H20.6328H20.7414H20.8502H20.9592H21.0683H21.1775H21.287H21.3965H21.5062H21.6161H21.7261H21.8363H21.9466H22.0571H22.1677H22.2784H22.3893H22.5003H22.6115H22.7228H22.8342H22.9458H23.0575H23.1693H23.2813H23.3933H23.5056H23.6179H23.7303H23.8429H23.9556H24.0685H24.1814H24.2945H24.4076H24.5209H24.6343H24.7479H24.8615H24.9752H25.0891H25.203H25.3171H25.4312H25.5455H25.6598H25.7743H25.8889H26.0035H26.1183H26.2331H26.348H26.4631H26.5782H26.6934H26.8087H26.924H27.0395H27.155H27.2707H27.3864H27.5021H27.618H27.7339H27.8499H27.966H28.0822H28.1984H28.3147H28.431H28.5475H28.664H28.7805H28.8971H29.0138H29.1305H29.2473H29.3642H29.4811H29.5981H29.7151H29.8321H29.9492H30.0664H30.1836H30.3009H30.4182H30.5355H30.6529H30.7703H30.8878H31.0052H31.1228H31.2403H31.3579H31.4756H31.5932H31.7109H31.8286H31.9464H32.0642H32.182H32.2998H32.4176H32.5355H32.6533H32.7712H32.8891H33.007H33.125H33.2429H33.3609H33.4788H33.5968H33.7148H33.8327H33.9507H34.0687H34.1867H34.3047H34.4226H34.5406H34.6586H34.7765H34.8945H35.0124H35.1303H35.2483H35.3662H35.4841H35.6019H35.7198H35.8376H35.9554H36.0732H36.191H36.3087H36.4265H36.5441H36.6618H36.7794H36.897H37.0146H37.1321H37.2496H37.3671H37.4845H37.6019H37.7192H37.8365H37.9538H38.071H38.1882H38.3053H38.4223H38.5393H38.6563H38.7732H38.8901H39.0068H39.1236H39.2403H39.3569H39.4734H39.5899H39.7063H39.8227H39.939H40.0552H40.1714H40.2875H40.4035H40.5194H40.6353H40.751H40.8667H40.9824H41.0979H41.2134H41.3287H41.444H41.5592H41.6743H41.7894H41.9043H42.0191H42.1339H42.2486H42.3631H42.4776H42.5919H42.7062H42.8203H42.9344H43.0483H43.1622H43.2759H43.3895H43.5031H43.6165H43.7298H43.8429H43.956H44.0689H44.1818H44.2945H44.4071H44.5195H44.6319H44.7441H44.8562H44.9681H45.0799H45.1916H45.3032H45.4146H45.5259H45.6371H45.7481H45.859H45.9698H46.0804H46.1908H46.3011H46.4113H46.5213H46.6312H46.7409H46.8505H46.9599H47.0692H47.1783H47.2872H47.396H47.5046H47.6131H47.7214H47.8296H47.9375H48.0453H48.153H48.2605H48.3678H48.4749H48.5819H48.6886H48.7952H48.9017H49.0079H49.114H49.2199H49.3256H49.4311H49.5364H49.6416H49.7465H49.8513H49.9559H50.0603H50.1644H50.2684H50.3722H50.4758H50.5792H50.6824H50.7854H50.8882H50.9908H51.0932H51.1953H51.2973H51.3991H51.5006H51.6019H51.703H51.8039H51.9046H52.0051H52.1053H52.2053H52.3051H52.4047H52.504H52.6031H52.702H52.8006H52.8991H52.9973H53.0952H53.1929H53.2904H53.3877H53.4847H53.5814H53.678H53.7742H53.8703H53.9661H54.0616H54.1569H54.2519H54.3467H54.4412H54.5355H54.6295H54.7233H54.8168H54.91H55.003H55.0957H55.1882H55.2804H55.3723H55.464H55.5554H55.6465H55.7373H55.8279H55.9182H56.0082H56.0979H56.1874H56.2765H56.3654H56.454H56.5423H56.6304H56.7181H56.8056H56.8928H56.9796H57.0662H57.1525H57.2385H57.3242H57.4096H57.4947H57.5795H57.664H57.7481H57.832H57.9156H57.9989H58.0818H58.1644H58.2468H58.3288H58.4105H58.4919H58.5729H58.6537H58.7341H58.8142H58.894H58.9734H59.0526H59.1314H59.2098H59.288H59.3658H59.4432H59.5204H59.5972H59.6736H59.7498H59.8256H59.901H59.9761H60.0509H60.1253H60.1993H60.273H60.3464H60.4194C62.0853 1.36548 63.6829 2.02733 64.8609 3.20529L64.8609 3.20533C66.0391 4.38323 66.7007 5.98084 66.7007 7.64704V7.70998V7.77298V7.83606V7.89921V7.96243V8.02571V8.08906V8.15249V8.21597V8.27953V8.34315V8.40685V8.4706V8.53443V8.59832V8.66227V8.72629V8.79038V8.85453V8.91875V8.98303V9.04737V9.11178V9.17625V9.24079V9.30539V9.37005V9.43478V9.49956V9.56441V9.62932V9.69429V9.75933V9.82442V9.88958V9.95479V10.0201V10.0854V10.1508V10.2163V10.2818V10.3473V10.413V10.4787V10.5444V10.6102V10.6761V10.742V10.808V10.874V10.9401V11.0062V11.0724V11.1387V11.205V11.2714V11.3378V11.4043V11.4708V11.5374V11.604V11.6707V11.7374V11.8042V11.8711V11.938V12.0049V12.0719V12.139V12.2061V12.2733V12.3405V12.4077V12.475V12.5424V12.6098V12.6772V12.7447V12.8123V12.8799V12.9476V13.0153V13.083V13.1508V13.2186V13.2865V13.3544V13.4224V13.4905V13.5585V13.6266V13.6948V13.763V13.8313V13.8995V13.9679V14.0363V14.1047V14.1732V14.2417V14.3102V14.3788V14.4475V14.5161V14.5849V14.6536V14.7224V14.7913V14.8602V14.9291V14.9981V15.0671V15.1361V15.2052V15.2743V15.3435V15.4127V15.4819V15.5512V15.6205V15.6899V15.7592V15.8287V15.8981V15.9676V16.0371V16.1067V16.1763V16.246V16.3156V16.3853V16.4551V16.5248V16.5947V16.6645V16.7344V16.8043V16.8742V16.9442V17.0142V17.0842V17.1543V17.2244V17.2945V17.3647V17.4349V17.5051V17.5753V17.6456V17.7159V17.7863V17.8566V17.927V17.9974V18.0679V18.1384V18.2089V18.2794V18.35V18.4206V18.4912V18.5618V18.6325V18.7032V18.7739V18.8446V18.9154V18.9862V19.057V19.1278V19.1987V19.2696V19.3405V19.4114V19.4823V19.5533V19.6243V19.6953V19.7664V19.8374V19.9085V19.9796V20.0507V20.1219V20.193V20.2642V20.3354V20.4066V20.4778V20.5491V20.6204V20.6917V20.763V20.8343V20.9056V20.977V21.0484V21.1198V21.1912V21.2626V21.334V21.4055V21.4769V21.5484V21.6199V21.6914V21.763V21.8345V21.906V21.9776V22.0492V22.1208V22.1924V22.264V22.3356V22.4072V22.4789V22.5505V22.6222V22.6939V22.7656V22.8373V22.909V22.9807V23.0524V23.1241V23.1959V23.2676V23.3394V23.4111V23.4829V23.5547V23.6265V23.6982V23.77V23.8418V23.9137V23.9855V24.0573V24.1291V24.2009V24.2728V24.3446V24.4164V24.4883V24.5601V24.632V24.7038V24.7757V24.8475V24.9194V24.9912V25.0631V25.1349V25.2068V25.2786V25.3505V25.4224V25.4942V25.5661V25.6379V25.7098V25.7816V25.8535V25.9253V25.9972V26.069V26.1409V26.2127V26.2845V26.3564V26.4282V26.5V26.5718V26.6436V26.7154V26.7872V26.859V26.9308V27.0026V27.0744V27.1462V27.2179V27.2897V27.3614V27.4332V27.5049V27.5766V27.6483V27.72V27.7917V27.8634V27.9351V28.0068V28.0784V28.1501V28.2217V28.2933V28.3649V28.4365V28.5081V28.5797V28.6512V28.7228V28.7943V28.8659V28.9374V29.0089V29.0803V29.1518V29.2233V29.2947V29.3661V29.4375V29.5089V29.5803V29.6516V29.723V29.7943V29.8656V29.9369V30.0082V30.0794V30.1507V30.2219V30.2931V30.3643V30.4354V30.5066V30.5777V30.6488V30.7199V30.7909V30.862V30.933V31.004V31.0749V31.1459V31.2168V31.2877V31.3586V31.4295V31.5003V31.5711V31.6419V31.7127V31.7834V31.8541V31.9248V31.9955V32.0661V32.1367V32.2073V32.2779V32.3484V32.4189V32.4894V32.5598V32.6303V32.7007V32.771V32.8414V32.9117V32.9819V33.0522V33.1224V33.1926V33.2628V33.3329V33.403V33.4731V33.5431V33.6131V33.6831V33.753V33.8229V33.8928V33.9626V34.0324V34.1022V34.172V34.2417V34.3113V34.381V34.4506V34.5201V34.5897V34.6592V34.7286V34.798V34.8674V34.9368V35.0061V35.0754V35.1446V35.2138V35.283V35.3521V35.4212V35.4902V35.5592V35.6282V35.6971V35.766V35.8348V35.9037V35.9724V36.0411V36.1098V36.1785V36.2471V36.3156V36.3841V36.4526V36.521V36.5894V36.6577V36.726V36.7943V36.8625V36.9306V36.9988V37.0668V37.1349V37.2028V37.2708V37.3387V37.4065V37.4743V37.542V37.6097V37.6774V37.745V37.8125V37.88V37.9475V38.0149V38.0823V38.1496V38.2168V38.284V38.3512V38.4183V38.4854V38.5524V38.6193V38.6862V38.7531V38.8199V38.8866V38.9533V39.0199V39.0865V39.153V39.2195V39.2859V39.3523V39.4186V39.4849V39.5511V39.6172V39.6833V39.7493V39.8153V39.8812V39.9471V40.0129V40.0786V40.1443V40.2099V40.2755V40.341V40.4065V40.4719V40.5372V40.6025V40.6677V40.7329V40.798V40.863V40.928V40.9929V41.0577V41.1225V41.1872V41.2519V41.3165V41.381V41.4455V41.5099V41.5743V41.6385V41.7028V41.7669V41.831V41.895V41.959V42.0229V42.0867V42.1504V42.2141V42.2778V42.3413V42.4048V42.4682V42.5316V42.5949V42.6581V42.7212V42.7843V42.8473V42.9102C66.7007 44.5764 66.0391 46.1741 64.8609 47.352L64.8609 47.352C63.6829 48.53 62.0853 49.1918 60.4194 49.1918H50.881C49.6221 49.1918 48.4021 49.6291 47.4301 50.429L40.6288 56.0249L37.6051 58.5128L36.6838 59.2709L36.4328 59.4774L36.3674 59.5311L36.3508 59.5448L36.3466 59.5483L36.3455 59.5492L36.3453 59.5494C36.3452 59.5494 36.3452 59.5494 36.3651 59.5736L36.3452 59.5494C35.0226 60.6375 33.115 60.6375 31.7924 59.5494L31.7595 59.5894C31.7924 59.5494 31.7924 59.5494 31.7923 59.5494L31.7921 59.5492L31.791 59.5483L31.7868 59.5448L31.7701 59.5311L31.7048 59.4774L31.4538 59.2708L30.5324 58.5128L27.5087 56.0249L20.7075 50.429Z" fill="white" stroke="black"/>
<path d="M45.6146 17.9106C45.4886 16.8987 45.0037 15.9682 44.2507 15.2932C43.4976 14.6181 42.5281 14.2449 41.5235 14.2434H24.2573C23.2527 14.2448 22.2831 14.6179 21.53 15.2929C20.7769 15.968 20.2921 16.8986 20.1663 17.9106L17.6923 38.0046C17.6199 38.5936 17.6715 39.1914 17.844 39.7586C18.0164 40.3257 18.3057 40.8491 18.6926 41.2941C19.0795 41.7391 19.5551 42.0954 20.088 42.3395C20.6209 42.5836 21.1988 42.7099 21.7834 42.71H43.9974C44.5821 42.7099 45.16 42.5836 45.6928 42.3395C46.2257 42.0954 46.7014 41.7391 47.0882 41.2941C47.4751 40.8491 47.7644 40.3257 47.9368 39.7586C48.1093 39.1914 48.161 38.5936 48.0885 38.0046L45.6146 17.9106Z" fill="#FF9F00"/>
<path d="M38.6628 20.4448C38.4441 20.4448 38.2343 20.3579 38.0797 20.2032C37.925 20.0486 37.8381 19.8388 37.8381 19.6201V14.6723C37.8381 13.36 37.3168 12.1016 36.389 11.1737C35.4611 10.2458 34.2026 9.72447 32.8903 9.72447C31.5781 9.72447 30.3196 10.2458 29.3917 11.1737C28.4638 12.1016 27.9425 13.36 27.9425 14.6723V19.6201C27.9425 19.8388 27.8556 20.0486 27.701 20.2032C27.5463 20.3579 27.3366 20.4448 27.1179 20.4448C26.8991 20.4448 26.6894 20.3579 26.5347 20.2032C26.3801 20.0486 26.2932 19.8388 26.2932 19.6201V14.6723C26.2932 12.9226 26.9883 11.2446 28.2255 10.0074C29.4627 8.77024 31.1407 8.0752 32.8903 8.0752C34.64 8.0752 36.318 8.77024 37.5552 10.0074C38.7924 11.2446 39.4874 12.9226 39.4874 14.6723V19.6201C39.4874 19.8388 39.4005 20.0486 39.2459 20.2032C39.0912 20.3579 38.8815 20.4448 38.6628 20.4448Z" fill="#252525"/>
<g clip-path="url(#clip0_786_1285)">
<path d="M38.6631 20.4448C38.4444 20.4448 38.2347 20.3579 38.08 20.2032C37.9254 20.0486 37.8385 19.8388 37.8385 19.6201V14.6723C37.8385 13.36 37.3172 12.1016 36.3893 11.1737C35.4614 10.2458 34.2029 9.72447 32.8907 9.72447C31.5784 9.72447 30.3199 10.2458 29.392 11.1737C28.4641 12.1016 27.9429 13.36 27.9429 14.6723V19.6201C27.9429 19.8388 27.856 20.0486 27.7013 20.2032C27.5467 20.3579 27.3369 20.4448 27.1182 20.4448C26.8995 20.4448 26.6898 20.3579 26.5351 20.2032C26.3805 20.0486 26.2936 19.8388 26.2936 19.6201V14.6723C26.2936 12.9226 26.9886 11.2446 28.2258 10.0074C29.463 8.77024 31.141 8.0752 32.8907 8.0752C34.6403 8.0752 36.3183 8.77024 37.5555 10.0074C38.7927 11.2446 39.4878 12.9226 39.4878 14.6723V19.6201C39.4878 19.8388 39.4009 20.0486 39.2462 20.2032C39.0916 20.3579 38.8818 20.4448 38.6631 20.4448Z" fill="#252525"/>
</g>
<path d="M45.3326 42.7099C50.3826 42.7099 54.4764 38.6161 54.4764 33.5661C54.4764 28.5162 50.3826 24.4224 45.3326 24.4224C40.2826 24.4224 36.1888 28.5162 36.1888 33.5661C36.1888 38.6161 40.2826 42.7099 45.3326 42.7099Z" fill="#0EA363"/>
<path d="M45.3327 38.486C45.0065 38.486 44.6937 38.3564 44.463 38.1257C44.2324 37.8951 44.1028 37.5822 44.1028 37.256V29.8764C44.1028 29.5502 44.2324 29.2374 44.463 29.0067C44.6937 28.7761 45.0065 28.6465 45.3327 28.6465C45.6589 28.6465 45.9718 28.7761 46.2024 29.0067C46.4331 29.2374 46.5627 29.5502 46.5627 29.8764V37.256C46.5627 37.5822 46.4331 37.8951 46.2024 38.1257C45.9718 38.3564 45.6589 38.486 45.3327 38.486Z" fill="#F4F4F4"/>
<path d="M49.0223 34.7963H41.6427C41.3165 34.7963 41.0036 34.6667 40.773 34.4361C40.5423 34.2054 40.4127 33.8926 40.4127 33.5664C40.4127 33.2402 40.5423 32.9273 40.773 32.6967C41.0036 32.466 41.3165 32.3364 41.6427 32.3364H49.0223C49.3485 32.3364 49.6613 32.466 49.892 32.6967C50.1226 32.9273 50.2522 33.2402 50.2522 33.5664C50.2522 33.8926 50.1226 34.2054 49.892 34.4361C49.6613 34.6667 49.3485 34.7963 49.0223 34.7963Z" fill="#F4F4F4"/>
<defs>
<clipPath id="clip0_786_1285">
<rect width="15" height="7" fill="white" transform="translate(25.1913 7.23804)"/>
</clipPath>
</defs>
</svg>
