<svg width="61" height="61" viewBox="0 0 61 61" fill="none" xmlns="http://www.w3.org/2000/svg">
<path d="M52.2423 24.344L30.0685 38.6917L7.89459 24.344V2.17005C7.87931 1.46497 8.4385 0.88107 9.14358 0.865785C9.16205 0.865418 9.18051 0.865418 9.19898 0.865785H50.9379C51.643 0.850499 52.227 1.4097 52.2423 2.11477C52.2427 2.13324 52.2427 2.1517 52.2423 2.17017V24.344Z" fill="white"/>
<path d="M7.89454 24.344L0.0684814 19.1266L7.89454 11.3005V24.344Z" fill="#F6B445"/>
<path d="M60.0682 19.1266L52.2422 24.344V11.3005L60.0682 19.1266Z" fill="#F6B445"/>
<path d="M52.2422 24.2265L60.0682 19.1265V55.6481C60.0658 57.0316 59.5173 58.3581 58.5421 59.3394L49.6335 50.4308L35.2857 36.083L34.9204 35.5221L52.2422 24.2265Z" fill="#FED049"/>
<path d="M49.6336 50.4309L58.5422 59.3395C57.5609 60.3147 56.2344 60.8631 54.8509 60.8656H5.28593C3.90244 60.8631 2.57592 60.3147 1.5946 59.3395L10.5032 50.4309L24.851 36.0831L25.2162 35.5222L30.0684 38.6918L34.9205 35.5222L35.2858 36.0831L49.6336 50.4309Z" fill="#F6B445"/>
<path d="M25.2163 35.5221L24.851 36.083L10.5033 50.4307L1.59468 59.3393C0.619485 58.358 0.0710492 57.0315 0.0686035 55.648V19.1265L25.2163 35.5221Z" fill="#FED049"/>
<path d="M44.4162 32.1699C53.0606 32.1699 60.0683 25.1623 60.0683 16.5178C60.0683 7.87341 53.0606 0.865723 44.4162 0.865723C35.7717 0.865723 28.764 7.87341 28.764 16.5178C28.764 25.1623 35.7717 32.1699 44.4162 32.1699Z" fill="#49AAEE"/>
<path d="M38.3085 16.7153L42.4896 20.8965L51.2464 12.1396" stroke="white" stroke-width="4"/>
</svg>
