<svg width="22" height="23" viewBox="0 0 22 23" fill="none" xmlns="http://www.w3.org/2000/svg">
<path d="M9.85417 2.7292C10.4958 2.18837 11.5317 2.18837 12.155 2.7292L13.6033 3.9667C13.8783 4.19587 14.4008 4.38837 14.7675 4.38837H16.3258C17.2975 4.38837 18.095 5.18587 18.095 6.15754V7.71587C18.095 8.08254 18.2875 8.59587 18.5167 8.87087L19.7542 10.3192C20.295 10.9609 20.295 11.9967 19.7542 12.62L18.5167 14.0684C18.2875 14.3434 18.095 14.8567 18.095 15.2234V16.7817C18.095 17.7534 17.2975 18.5509 16.3258 18.5509H14.7675C14.4008 18.5509 13.8875 18.7434 13.6125 18.9725L12.1642 20.21C11.5225 20.7509 10.4867 20.7509 9.86334 20.21L8.415 18.9725C8.14 18.7434 7.6175 18.5509 7.26 18.5509H5.65584C4.68417 18.5509 3.88667 17.7534 3.88667 16.7817V15.2142C3.88667 14.8567 3.70334 14.3342 3.47417 14.0684L2.23667 12.6109C1.705 11.9784 1.705 10.9517 2.23667 10.3192L3.47417 8.8617C3.70334 8.5867 3.88667 8.07337 3.88667 7.71587V6.1667C3.88667 5.19504 4.68417 4.39754 5.65584 4.39754H7.24167C7.60834 4.39754 8.12167 4.20504 8.39667 3.97587L9.85417 2.7292Z" stroke="#252525" stroke-width="1.375" stroke-linecap="round" stroke-linejoin="round"/>
<path d="M11 7.93587V12.3634" stroke="#252525" stroke-width="1.375" stroke-linecap="round" stroke-linejoin="round"/>
<path d="M10.995 15.15H11.0032" stroke="#252525" stroke-width="1.83333" stroke-linecap="round" stroke-linejoin="round"/>
</svg>
