<svg width="67" height="61" viewBox="0 0 67 61" fill="none" xmlns="http://www.w3.org/2000/svg">
<path d="M20.3545 50.4287L20.3544 50.4287C19.3822 49.6288 18.1622 49.1916 16.9035 49.1916H7.36515C5.69933 49.1916 4.10167 48.5297 2.92342 47.3518C1.74547 46.1738 1.08362 44.5762 1.08362 42.91V7.64679C1.08362 5.98064 1.74547 4.38299 2.92342 3.20504C4.10167 2.02706 5.69933 1.36523 7.36515 1.36523H7.43816H7.51152H7.58524H7.6593H7.73371H7.80846H7.88356H7.959H8.03478H8.11091H8.18737H8.26417H8.34131H8.41878H8.49658H8.57472H8.65318H8.73198H8.81111H8.89056H8.97033H9.05043H9.13085H9.2116H9.29266H9.37404H9.45574H9.53775H9.62008H9.70272H9.78567H9.86893H9.9525H10.0364H10.1206H10.2051H10.2898H10.3749H10.4603H10.546H10.632H10.7183H10.8049H10.8917H10.9789H11.0664H11.1541H11.2422H11.3305H11.4191H11.508H11.5971H11.6866H11.7763H11.8663H11.9566H12.0472H12.138H12.2291H12.3205H12.4122H12.5041H12.5963H12.6887H12.7814H12.8744H12.9677H13.0612H13.1549H13.249H13.3432H13.4378H13.5325H13.6276H13.7229H13.8184H13.9142H14.0102H14.1065H14.203H14.2998H14.3968H14.494H14.5915H14.6892H14.7872H14.8854H14.9838H15.0825H15.1813H15.2804H15.3798H15.4794H15.5791H15.6792H15.7794H15.8798H15.9805H16.0814H16.1825H16.2838H16.3854H16.4871H16.5891H16.6913H16.7936H16.8962H16.999H17.102H17.2052H17.3086H17.4122H17.516H17.62H17.7242H17.8285H17.9331H18.0379H18.1428H18.248H18.3533H18.4588H18.5645H18.6704H18.7765H18.8827H18.9892H19.0958H19.2026H19.3095H19.4166H19.5239H19.6314H19.7391H19.8469H19.9549H20.063H20.1713H20.2798H20.3884H20.4972H20.6061H20.7152H20.8245H20.9339H21.0435H21.1532H21.2631H21.3731H21.4833H21.5936H21.704H21.8146H21.9254H22.0363H22.1473H22.2584H22.3697H22.4812H22.5927H22.7044H22.8163H22.9282H23.0403H23.1525H23.2649H23.3773H23.4899H23.6026H23.7154H23.8284H23.9414H24.0546H24.1679H24.2813H24.3948H24.5085H24.6222H24.736H24.85H24.964H25.0782H25.1925H25.3068H25.4213H25.5358H25.6505H25.7652H25.8801H25.995H26.11H26.2251H26.3403H26.4556H26.571H26.6865H26.802H26.9176H27.0333H27.1491H27.265H27.3809H27.4969H27.613H27.7291H27.8454H27.9617H28.078H28.1944H28.3109H28.4275H28.5441H28.6608H28.7775H28.8943H29.0112H29.1281H29.245H29.362H29.4791H29.5962H29.7134H29.8306H29.9478H30.0651H30.1825H30.2998H30.4173H30.5347H30.6522H30.7698H30.8873H31.0049H31.1225H31.2402H31.3579H31.4756H31.5934H31.7111H31.8289H31.9467H32.0646H32.1824H32.3003H32.4182H32.5361H32.654H32.7719H32.8899H33.0078H33.1258H33.2438H33.3617H33.4797H33.5977H33.7157H33.8336H33.9516H34.0696H34.1876H34.3055H34.4235H34.5414H34.6594H34.7773H34.8952H35.0131H35.131H35.2489H35.3668H35.4846H35.6024H35.7202H35.838H35.9557H36.0734H36.1911H36.3088H36.4264H36.544H36.6616H36.7791H36.8966H37.0141H37.1315H37.2489H37.3662H37.4835H37.6008H37.718H37.8351H37.9522H38.0693H38.1863H38.3033H38.4202H38.537H38.6538H38.7706H38.8872H39.0038H39.1204H39.2369H39.3533H39.4697H39.586H39.7022H39.8183H39.9344H40.0504H40.1664H40.2822H40.398H40.5137H40.6293H40.7449H40.8603H40.9757H41.091H41.2062H41.3213H41.4363H41.5513H41.6661H41.7809H41.8955H42.0101H42.1245H42.2389H42.3532H42.4673H42.5814H42.6953H42.8092H42.9229H43.0365H43.15H43.2634H43.3767H43.4899H43.603H43.7159H43.8287H43.9414H44.054H44.1665H44.2788H44.391H44.5031H44.6151H44.7269H44.8386H44.9502H45.0616H45.1729H45.2841H45.3951H45.506H45.6167H45.7273H45.8378H45.9481H46.0583H46.1683H46.2782H46.3879H46.4974H46.6069H46.7161H46.8252H46.9342H47.043H47.1516H47.2601H47.3684H47.4765H47.5845H47.6923H47.8H47.9074H48.0147H48.1219H48.2288H48.3356H48.4422H48.5486H48.6549H48.761H48.8668H48.9725H49.0781H49.1834H49.2885H49.3935H49.4983H49.6028H49.7072H49.8114H49.9154H50.0192H50.1228H50.2262H50.3294H50.4324H50.5352H50.6378H50.7401H50.8423H50.9443H51.046H51.1476H51.2489H51.35H51.4509H51.5516H51.652H51.7523H51.8523H51.9521H52.0516H52.151H52.2501H52.349H52.4476H52.546H52.6442H52.7422H52.8399H52.9374H53.0346H53.1316H53.2284H53.3249H53.4212H53.5172H53.613H53.7086H53.8039H53.8989H53.9937H54.0882H54.1825H54.2765H54.3703H54.4638H54.557H54.65H54.7427H54.8352H54.9274H55.0193H55.1109H55.2023H55.2934H55.3843H55.4748H55.5651H55.6551H55.7449H55.8343H55.9235H56.0124H56.101H56.1893H56.2774H56.3651H56.4526H56.5397H56.6266H56.7132H56.7995H56.8855H56.9712H57.0565H57.1416H57.2264H57.3109H57.3951H57.479H57.5626H57.6458H57.7288H57.8114H57.8937H57.9758H58.0575H58.1388H58.2199H58.3007H58.3811H58.4612H58.541H58.6204H58.6995H58.7783H58.8568H58.9349H59.0127H59.0902H59.1674H59.2442H59.3206H59.3967H59.4725H59.548H59.6231H59.6978H59.7722H59.8463H59.92H59.9934H60.0664C61.7322 1.36523 63.3299 2.02708 64.5078 3.20504L64.5079 3.20508C65.686 4.38298 66.3476 5.9806 66.3476 7.64679V7.70973V7.77274V7.83582V7.89897V7.96218V8.02547V8.08882V8.15224V8.21573V8.27929V8.34291V8.4066V8.47036V8.53418V8.59807V8.66203V8.72605V8.79013V8.85429V8.9185V8.98278V9.04713V9.11154V9.17601V9.24055V9.30515V9.36981V9.43453V9.49932V9.56417V9.62908V9.69405V9.75908V9.82418V9.88933V9.95455V10.0198V10.0852V10.1506V10.216V10.2815V10.3471V10.4127V10.4784V10.5442V10.61V10.6758V10.7417V10.8077V10.8738V10.9398V11.006V11.0722V11.1384V11.2048V11.2711V11.3375V11.404V11.4705V11.5371V11.6038V11.6704V11.7372V11.804V11.8708V11.9377V12.0047V12.0717V12.1387V12.2058V12.273V12.3402V12.4075V12.4748V12.5421V12.6095V12.677V12.7445V12.8121V12.8797V12.9473V13.015V13.0828V13.1505V13.2184V13.2863V13.3542V13.4222V13.4902V13.5583V13.6264V13.6946V13.7628V13.831V13.8993V13.9676V14.036V14.1045V14.1729V14.2414V14.31V14.3786V14.4472V14.5159V14.5846V14.6534V14.7222V14.791V14.8599V14.9289V14.9978V15.0668V15.1359V15.2049V15.2741V15.3432V15.4124V15.4817V15.5509V15.6203V15.6896V15.759V15.8284V15.8979V15.9674V16.0369V16.1065V16.1761V16.2457V16.3154V16.3851V16.4548V16.5246V16.5944V16.6643V16.7341V16.804V16.874V16.9439V17.0139V17.084V17.154V17.2241V17.2943V17.3644V17.4346V17.5048V17.5751V17.6454V17.7157V17.786V17.8564V17.9268V17.9972V18.0677V18.1381V18.2086V18.2792V18.3497V18.4203V18.4909V18.5616V18.6322V18.7029V18.7736V18.8444V18.9151V18.9859V19.0567V19.1276V19.1984V19.2693V19.3402V19.4111V19.4821V19.5531V19.6241V19.6951V19.7661V19.8372V19.9083V19.9794V20.0505V20.1216V20.1928V20.264V20.3352V20.4064V20.4776V20.5489V20.6201V20.6914V20.7627V20.8341V20.9054V20.9767V21.0481V21.1195V21.1909V21.2623V21.3338V21.4052V21.4767V21.5482V21.6197V21.6912V21.7627V21.8342V21.9058V21.9774V22.0489V22.1205V22.1921V22.2637V22.3354V22.407V22.4786V22.5503V22.622V22.6936V22.7653V22.837V22.9087V22.9804V23.0522V23.1239V23.1956V23.2674V23.3391V23.4109V23.4827V23.5544V23.6262V23.698V23.7698V23.8416V23.9134V23.9852V24.057V24.1289V24.2007V24.2725V24.3443V24.4162V24.488V24.5599V24.6317V24.7036V24.7754V24.8473V24.9191V24.991V25.0628V25.1347V25.2065V25.2784V25.3503V25.4221V25.494V25.5658V25.6377V25.7095V25.7814V25.8532V25.9251V25.9969V26.0688V26.1406V26.2125V26.2843V26.3561V26.4279V26.4998V26.5716V26.6434V26.7152V26.787V26.8588V26.9306V27.0024V27.0741V27.1459V27.2177V27.2894V27.3612V27.4329V27.5046V27.5764V27.6481V27.7198V27.7915V27.8632V27.9348V28.0065V28.0782V28.1498V28.2214V28.2931V28.3647V28.4363V28.5079V28.5794V28.651V28.7225V28.7941V28.8656V28.9371V29.0086V29.0801V29.1516V29.223V29.2945V29.3659V29.4373V29.5087V29.58V29.6514V29.7227V29.7941V29.8654V29.9367V30.0079V30.0792V30.1504V30.2216V30.2928V30.364V30.4352V30.5063V30.5774V30.6485V30.7196V30.7907V30.8617V30.9327V31.0037V31.0747V31.1456V31.2166V31.2875V31.3584V31.4292V31.5001V31.5709V31.6417V31.7124V31.7832V31.8539V31.9246V31.9952V32.0659V32.1365V32.2071V32.2776V32.3482V32.4187V32.4891V32.5596V32.63V32.7004V32.7708V32.8411V32.9114V32.9817V33.0519V33.1222V33.1924V33.2625V33.3326V33.4027V33.4728V33.5429V33.6129V33.6828V33.7528V33.8227V33.8925V33.9624V34.0322V34.102V34.1717V34.2414V34.3111V34.3807V34.4503V34.5199V34.5894V34.6589V34.7284V34.7978V34.8672V34.9365V35.0059V35.0751V35.1444V35.2136V35.2827V35.3518V35.4209V35.49V35.559V35.6279V35.6969V35.7658V35.8346V35.9034V35.9722V36.0409V36.1096V36.1782V36.2468V36.3154V36.3839V36.4523V36.5208V36.5892V36.6575V36.7258V36.794V36.8622V36.9304V36.9985V37.0666V37.1346V37.2026V37.2705V37.3384V37.4062V37.474V37.5418V37.6095V37.6771V37.7447V37.8123V37.8798V37.9473V38.0147V38.082V38.1493V38.2166V38.2838V38.3509V38.4181V38.4851V38.5521V38.6191V38.686V38.7528V38.8196V38.8863V38.953V39.0197V39.0863V39.1528V39.2193V39.2857V39.352V39.4184V39.4846V39.5508V39.617V39.683V39.7491V39.8151V39.881V39.9468V40.0126V40.0784V40.1441V40.2097V40.2753V40.3408V40.4062V40.4716V40.537V40.6022V40.6675V40.7326V40.7977V40.8627V40.9277V40.9926V41.0575V41.1223V41.187V41.2517V41.3162V41.3808V41.4453V41.5097V41.574V41.6383V41.7025V41.7667V41.8307V41.8948V41.9587V42.0226V42.0864V42.1502V42.2139V42.2775V42.3411V42.4046V42.468V42.5313V42.5946V42.6578V42.721V42.7841V42.8471V42.91C66.3476 44.5762 65.686 46.1738 64.5079 47.3517L64.5078 47.3518C63.3299 48.5297 61.7322 49.1916 60.0664 49.1916H50.528C49.2691 49.1916 48.0491 49.6288 47.077 50.4288L40.2757 56.0247L37.2521 58.5125L36.3308 59.2706L36.0798 59.4771L36.0144 59.5309L35.9978 59.5446L35.9936 59.5481L35.9925 59.5489L35.9922 59.5492C35.9922 59.5492 35.9922 59.5492 36.0121 59.5734L35.9922 59.5492C34.6695 60.6373 32.762 60.6373 31.4394 59.5492L31.4065 59.5891C31.4393 59.5492 31.4393 59.5492 31.4393 59.5491L31.439 59.5489L31.438 59.5481L31.4338 59.5446L31.4171 59.5309L31.3518 59.4771L31.1008 59.2706L30.1794 58.5125L27.1557 56.0247L20.3545 50.4287Z" fill="white" stroke="black"/>
<path d="M46.1826 33.2579C45.5513 33.2579 45.0396 32.7461 45.0396 32.1149V23.9796C45.0396 23.4794 45.3649 23.0372 45.8424 22.8883C46.3199 22.7397 46.8388 22.9184 47.1231 23.3301L50.719 28.537L50.6748 23.9755C50.6687 23.3442 51.1755 22.8275 51.8067 22.8214C51.8106 22.8213 51.8144 22.8213 51.818 22.8213C52.4442 22.8213 52.9547 23.3257 52.9607 23.9532L53.0369 31.829C53.037 31.8328 53.037 31.8364 53.037 31.8401C53.037 32.445 52.6905 32.9438 52.1543 33.1113C51.6275 33.2756 51.0737 33.0728 50.7429 32.5946L47.3256 27.6462V32.1149C47.3256 32.7461 46.8138 33.2579 46.1826 33.2579Z" fill="#252525"/>
<path d="M16.043 33.2585C15.1374 33.2585 15.0801 33.2487 14.9981 33.2347C14.449 33.1408 14.0476 32.665 14.0476 32.108V23.9643C14.0476 23.3331 14.5594 22.8213 15.1906 22.8213C15.8219 22.8213 16.3337 23.3331 16.3337 23.9643V30.9714C16.8736 30.9704 17.5194 30.9679 18.0383 30.965H18.0449C18.6731 30.965 19.1842 31.4725 19.1877 32.1016C19.1912 32.7329 18.6824 33.2475 18.0511 33.251C17.1174 33.2562 16.481 33.2585 16.043 33.2585Z" fill="#252525"/>
<path d="M42.2419 33.2579C41.6106 33.2579 41.0989 32.7461 41.0989 32.1149V23.9643C41.0989 23.3331 41.6106 22.8213 42.2419 22.8213C42.8732 22.8213 43.3849 23.3331 43.3849 23.9643V32.1149C43.3849 32.7461 42.8732 33.2579 42.2419 33.2579Z" fill="#252525"/>
<path d="M35.4336 33.2578C32.5562 33.2578 30.2153 30.9169 30.2153 28.0396C30.2153 25.1622 32.5563 22.8213 35.4336 22.8213C36.4791 22.8213 37.4883 23.1298 38.3519 23.7132C38.875 24.0667 39.0125 24.7772 38.6591 25.3002C38.3058 25.8234 37.5951 25.961 37.0721 25.6074C36.5879 25.2803 36.0213 25.1074 35.4336 25.1074C33.8167 25.1074 32.5014 26.4228 32.5014 28.0396C32.5014 29.6563 33.8168 30.9717 35.4336 30.9717C36.7095 30.9717 37.387 30.1674 37.6607 29.1826H36.5133C35.8821 29.1826 35.3703 28.6708 35.3703 28.0396C35.3703 27.4083 35.8821 26.8965 36.5133 26.8965H38.9515C39.5828 26.8965 40.0945 27.4083 40.0945 28.0396C40.0945 31.112 38.1779 33.2578 35.4336 33.2578Z" fill="#252525"/>
<path d="M24.2346 33.2578C21.3572 33.2578 19.0164 30.9169 19.0164 28.0396C19.0164 25.1622 21.3573 22.8213 24.2346 22.8213C27.1119 22.8213 29.4528 25.1622 29.4528 28.0396C29.4528 30.9169 27.1119 33.2578 24.2346 33.2578ZM24.2346 25.1073C22.6177 25.1073 21.3024 26.4227 21.3024 28.0395C21.3024 29.6563 22.6178 30.9717 24.2346 30.9717C25.8514 30.9717 27.1668 29.6563 27.1668 28.0395C27.1668 26.4227 25.8514 25.1073 24.2346 25.1073Z" fill="#252525"/>
<path d="M45.3722 42.1467L43.1015 43.5763C42.7712 43.7842 42.3349 43.685 42.127 43.3548L38.196 37.1108L41.6628 34.9282L45.5937 41.1722C45.8017 41.5025 45.7025 41.9388 45.3722 42.1467Z" fill="#832FEE"/>
<path d="M36.0843 31.0871L36.2454 40.3214C36.2566 40.9696 37.0428 41.2842 37.4983 40.8228L40.8289 37.4479L45.3119 35.9035C45.9249 35.6924 45.9811 34.8474 45.4014 34.5569L37.1442 30.4198C36.6524 30.1735 36.0747 30.5372 36.0843 31.0871Z" fill="#832FEE"/>
<path fill-rule="evenodd" clip-rule="evenodd" d="M18.437 0.865234H60.0662C61.8646 0.865234 63.5895 1.57977 64.8612 2.85149C66.1332 4.12321 66.8474 5.84803 66.8474 7.64679V10.5529H28.1662C25.1722 10.5529 22.4352 8.86131 21.0962 6.1834L18.437 0.865234Z" fill="black"/>
<path d="M43.7911 8.03397C45.0752 8.03397 46.1161 6.99305 46.1161 5.709C46.1161 4.42496 45.0752 3.38403 43.7911 3.38403C42.5071 3.38403 41.4662 4.42496 41.4662 5.709C41.4662 6.99305 42.5071 8.03397 43.7911 8.03397Z" fill="#FFC50C"/>
<path d="M53.4784 8.03397C54.7624 8.03397 55.8034 6.99305 55.8034 5.709C55.8034 4.42496 54.7624 3.38403 53.4784 3.38403C52.1944 3.38403 51.1534 4.42496 51.1534 5.709C51.1534 6.99305 52.1944 8.03397 53.4784 8.03397Z" fill="#FB7A80"/>
<path d="M34.1029 8.03397C35.387 8.03397 36.4279 6.99305 36.4279 5.709C36.4279 4.42496 35.387 3.38403 34.1029 3.38403C32.8189 3.38403 31.778 4.42496 31.778 5.709C31.778 6.99305 32.8189 8.03397 34.1029 8.03397Z" fill="#8BC449"/>
<path fill-rule="evenodd" clip-rule="evenodd" d="M6.16294 7.66187H15.388C15.8105 7.66187 16.1536 7.24609 16.1536 6.73415C16.1536 6.22222 15.8105 5.80688 15.388 5.80688H6.16294C5.74046 5.80688 5.39771 6.22222 5.39771 6.73415C5.39771 7.24609 5.74046 7.66187 6.16294 7.66187Z" fill="#FFCD00"/>
</svg>
