<svg width="23" height="22" viewBox="0 0 23 22" fill="none" xmlns="http://www.w3.org/2000/svg">
<path d="M20.6667 5.95833H15.1667" stroke="#252525" stroke-width="1.375" stroke-miterlimit="10" stroke-linecap="round" stroke-linejoin="round"/>
<path d="M5.99998 5.95833H2.33331" stroke="#252525" stroke-width="1.375" stroke-miterlimit="10" stroke-linecap="round" stroke-linejoin="round"/>
<path d="M9.66665 9.16667C11.4386 9.16667 12.875 7.73025 12.875 5.95833C12.875 4.18642 11.4386 2.75 9.66665 2.75C7.89473 2.75 6.45831 4.18642 6.45831 5.95833C6.45831 7.73025 7.89473 9.16667 9.66665 9.16667Z" stroke="#252525" stroke-width="1.375" stroke-miterlimit="10" stroke-linecap="round" stroke-linejoin="round"/>
<path d="M20.6667 16.0417H17" stroke="#292D32" stroke-width="1.375" stroke-miterlimit="10" stroke-linecap="round" stroke-linejoin="round"/>
<path d="M7.83331 16.0417H2.33331" stroke="#292D32" stroke-width="1.375" stroke-miterlimit="10" stroke-linecap="round" stroke-linejoin="round"/>
<path d="M13.3333 19.25C15.1052 19.25 16.5417 17.8136 16.5417 16.0417C16.5417 14.2697 15.1052 12.8333 13.3333 12.8333C11.5614 12.8333 10.125 14.2697 10.125 16.0417C10.125 17.8136 11.5614 19.25 13.3333 19.25Z" stroke="#292D32" stroke-width="1.375" stroke-miterlimit="10" stroke-linecap="round" stroke-linejoin="round"/>
</svg>
