<svg width="62" height="61" viewBox="0 0 62 61" fill="none" xmlns="http://www.w3.org/2000/svg">
<path d="M31.0684 24.5032C37.5957 24.5032 42.8872 19.2117 42.8872 12.6843C42.8872 6.15697 37.5957 0.865479 31.0684 0.865479C24.541 0.865479 19.2495 6.15697 19.2495 12.6843C19.2495 19.2117 24.541 24.5032 31.0684 24.5032Z" fill="#E9715F"/>
<path d="M34.93 23.9181C33.7598 24.3862 32.3556 24.5032 31.0684 24.5032C29.6642 24.5032 28.26 24.2692 26.9728 23.8011L27.4409 20.2906L27.7919 17.9502H34.1109L34.462 20.4076L34.93 23.9181Z" fill="#F5B948"/>
<path d="M37.7386 14.3226C37.6215 14.2056 37.3875 14.2056 37.1535 14.2056C36.9194 14.3226 36.8024 14.3226 36.8024 14.3226C36.5684 14.4396 36.4514 14.5566 36.4514 14.7907C36.4514 14.9077 36.3343 15.0247 36.3343 15.0247C36.3343 14.6736 36.3343 14.4396 36.4514 14.0885C36.5684 12.8013 36.5684 11.6312 36.4514 10.344C36.3343 9.52482 35.9833 8.58867 35.1642 8.00358C34.462 7.53551 33.5259 7.53551 32.7068 7.41849C31.6536 7.41849 30.7175 7.30147 29.6643 7.30147C28.9622 7.30147 28.3771 7.18445 27.675 7.41849C26.9729 7.53551 26.3878 7.88656 26.0367 8.35464C25.5686 9.05675 25.4516 9.64184 25.4516 10.2269C25.3346 11.3971 25.3346 12.4503 25.3346 13.6205C25.3346 13.9715 25.3346 14.2056 25.4516 14.5566L25.3346 14.4396C25.3346 14.4396 25.2176 14.3226 24.9836 14.3226C24.7495 14.2056 24.5155 14.3226 24.3985 14.4396C24.1644 14.5566 24.1644 14.7907 24.1644 15.0247C24.1644 15.8438 24.6325 16.5459 24.9836 17.248C25.1006 17.4821 25.2176 17.7161 25.4516 17.8331C25.5686 17.9502 25.6857 18.0672 25.9197 18.0672C26.0367 18.0672 26.1537 18.0672 26.1537 17.9502C26.2708 18.3012 26.3878 18.5352 26.5048 18.8863C27.2069 20.2905 28.3771 22.2798 30.4834 22.9819C30.8345 23.099 31.3025 23.099 31.6536 22.9819C32.8238 22.5139 33.6429 21.6947 34.345 20.8756C35.0471 19.9395 35.6322 18.8863 35.8663 17.7161V17.8331C35.9833 17.9502 36.1003 18.0672 36.2173 18.0672C36.3343 18.0672 36.5684 17.9502 36.6854 17.8331C36.9194 17.5991 37.0365 17.3651 37.1535 17.248C37.5045 16.5459 37.8556 15.7268 37.9726 15.0247C37.9726 14.6736 37.9726 14.4396 37.7386 14.3226Z" fill="#FFCA67"/>
<path d="M24.6324 14.3226L25.5685 16.312C25.5685 16.312 25.4515 9.52489 27.0898 8.47172C27.0898 8.47172 28.1429 7.65259 28.9621 8.82278C28.9621 8.82278 29.8982 9.29085 30.7173 8.58874C30.7173 8.58874 32.0045 8.35471 32.5896 9.17384C32.5896 9.17384 33.8768 9.05682 33.9939 8.70576C33.9939 8.70576 35.9832 9.05682 35.5151 10.9291C35.5151 10.9291 36.1002 12.0993 35.7491 13.6205C35.7491 13.6205 36.3342 15.6099 36.2172 16.312C36.2172 16.312 36.4512 15.4928 36.6853 14.5567C36.8023 14.0886 37.0363 13.7376 37.1534 13.3865C37.3874 11.7482 37.6214 8.35471 35.3981 7.65259C35.3981 7.65259 34.3449 5.89732 31.1854 5.66328C31.1854 5.66328 26.6217 5.54626 26.1536 7.65259C26.1536 7.65259 24.0473 8.70576 24.3984 10.9291C24.5154 10.8121 24.6324 14.0886 24.6324 14.3226Z" fill="#444445"/>
<path d="M58.3007 42.7108H3.83634C2.17216 42.7108 0.810547 41.3492 0.810547 39.685V32.1205C0.810547 30.4563 2.17216 29.0947 3.83634 29.0947H58.3007C59.9649 29.0947 61.3265 30.4563 61.3265 32.1205V39.685C61.3265 41.3492 59.9649 42.7108 58.3007 42.7108Z" fill="#EFEFEF"/>
<path d="M58.3007 60.8656H3.83634C2.17216 60.8656 0.810547 59.504 0.810547 57.8398V50.2753C0.810547 48.6111 2.17216 47.2495 3.83634 47.2495H58.3007C59.9649 47.2495 61.3265 48.6111 61.3265 50.2753V57.8398C61.3265 59.504 59.9649 60.8656 58.3007 60.8656Z" fill="#EFEFEF"/>
<path d="M11.2496 35.2976C11.4008 34.9951 11.5521 34.5412 11.5521 34.0873C11.5521 32.5744 10.3418 31.5154 8.98021 31.5154C7.46731 31.5154 6.40828 32.7257 6.40828 34.0873C6.40828 34.5412 6.55957 34.9951 6.71086 35.2976C5.65183 36.0541 4.89539 37.2644 4.89539 38.7773C4.89539 41.0467 13.2163 41.0467 13.2163 38.7773C13.2163 37.2644 12.4599 36.0541 11.2496 35.2976Z" fill="#35A9D9"/>
<path d="M11.552 54.5114H6.55945V52.0908C6.55945 50.7292 7.61848 49.6702 8.98009 49.6702C10.3417 49.6702 11.4007 50.7292 11.4007 52.0908V54.5114H11.552ZM7.3159 53.6037H10.493V51.9395C10.493 51.0318 9.73654 50.2753 8.8288 50.2753C7.92106 50.2753 7.16461 51.0318 7.16461 51.9395V53.6037H7.3159Z" fill="#696967"/>
<path d="M10.7956 58.5962H7.16463C6.25689 58.5962 5.65173 57.991 5.65173 57.0833V54.8139C5.65173 53.9062 6.25689 53.301 7.16463 53.301H10.7956C11.7033 53.301 12.3085 53.9062 12.3085 54.8139V57.0833C12.3085 57.991 11.7033 58.5962 10.7956 58.5962Z" fill="#E9715F"/>
<path d="M23.0501 54.0575L24.4117 52.6959C24.7143 52.3933 24.7143 51.9394 24.4117 51.6368C24.1091 51.3343 23.6553 51.3343 23.3527 51.6368L21.9911 53.1497L20.6295 51.6368C20.3269 51.3343 19.873 51.3343 19.5704 51.6368C19.2679 51.9394 19.2679 52.3933 19.5704 52.6959L20.932 54.0575L19.5704 55.4191C19.2679 55.7217 19.2679 56.1755 19.5704 56.4781C19.873 56.7807 20.3269 56.7807 20.6295 56.4781L21.9911 55.1165L23.3527 56.4781C23.6553 56.7807 24.1091 56.7807 24.4117 56.4781C24.7143 56.1755 24.7143 55.7217 24.4117 55.4191L23.0501 54.0575Z" fill="#C7C7C7"/>
<path d="M33.1866 54.0575L34.5482 52.6959C34.8508 52.3933 34.8508 51.9394 34.5482 51.6368C34.2456 51.3343 33.7917 51.3343 33.4892 51.6368L32.1276 53.1497L30.7659 51.6368C30.4634 51.3343 30.0095 51.3343 29.7069 51.6368C29.4043 51.9394 29.4043 52.3933 29.7069 52.6959L31.0685 54.0575L29.7069 55.4191C29.4043 55.7217 29.4043 56.1755 29.7069 56.4781C30.0095 56.7807 30.4634 56.7807 30.7659 56.4781L32.1276 55.1165L33.4892 56.4781C33.7917 56.7807 34.2456 56.7807 34.5482 56.4781C34.8508 56.1755 34.8508 55.7217 34.5482 55.4191L33.1866 54.0575Z" fill="#C7C7C7"/>
<path d="M43.3229 54.0575L44.6845 52.6959C44.9871 52.3933 44.9871 51.9394 44.6845 51.6368C44.382 51.3343 43.9281 51.3343 43.6255 51.6368L42.2639 53.1497L40.9023 51.6368C40.5997 51.3343 40.1458 51.3343 39.8433 51.6368C39.5407 51.9394 39.5407 52.3933 39.8433 52.6959L41.2049 54.0575L39.8433 55.4191C39.5407 55.7217 39.5407 56.1755 39.8433 56.4781C40.1458 56.7807 40.5997 56.7807 40.9023 56.4781L42.2639 55.1165L43.6255 56.4781C43.9281 56.7807 44.382 56.7807 44.6845 56.4781C44.9871 56.1755 44.9871 55.7217 44.6845 55.4191L43.3229 54.0575Z" fill="#C7C7C7"/>
<path d="M53.6107 54.0575L54.9723 52.6959C55.2749 52.3933 55.2749 51.9394 54.9723 51.6368C54.6697 51.3343 54.2159 51.3343 53.9133 51.6368L52.5517 53.1497L51.0388 51.6368C50.7362 51.3343 50.2823 51.3343 49.9797 51.6368C49.6772 51.9394 49.6772 52.3933 49.9797 52.6959L51.3414 54.0575L49.9797 55.4191C49.6772 55.7217 49.6772 56.1755 49.9797 56.4781C50.2823 56.7807 50.7362 56.7807 51.0388 56.4781L52.4004 55.1165L53.762 56.4781C54.0646 56.7807 54.5184 56.7807 54.821 56.4781C55.1236 56.1755 55.1236 55.7217 54.821 55.4191L53.6107 54.0575Z" fill="#C7C7C7"/>
<path d="M28.7992 38.4745C30.0095 38.4745 30.7659 37.5668 30.7659 36.2052V32.1204H31.9762V36.3565C31.9762 38.6258 30.6146 39.6849 28.7992 39.6849C26.9837 39.6849 25.6221 38.6258 25.6221 36.3565V32.1204H26.8324V36.2052C26.9837 37.5668 27.5888 38.4745 28.7992 38.4745Z" fill="black"/>
<path d="M37.7254 38.0207C37.7254 39.231 36.8176 39.8362 35.6073 39.8362C35.1535 39.8362 34.6996 39.8362 34.2457 39.6849C33.7919 39.5336 33.338 39.3823 33.0354 39.0797L33.6406 38.172C34.2457 38.6259 35.0022 38.9284 35.6073 38.9284C36.5151 38.9284 37.1202 38.0207 35.1535 37.4155C33.0354 36.8104 33.0354 35.2975 33.9431 34.541C34.397 34.2384 34.8509 34.0872 35.6073 34.0872C36.2125 34.0872 36.8176 34.2384 37.4228 34.6923L37.1202 35.2975C36.6664 34.9949 36.2125 34.8436 35.6073 34.8436C35.3047 34.8436 35.1535 34.8436 34.8509 34.9949C34.5483 35.1462 34.397 35.7513 34.8509 35.9026C35.6073 36.2052 37.7254 36.3565 37.7254 38.0207Z" fill="black"/>
<path d="M44.3821 37.2642H39.9947C39.9947 38.1719 40.9024 38.6258 41.8102 38.6258C42.5666 38.6258 43.0205 38.4745 43.4744 38.0206L44.2308 38.7771C43.6257 39.3822 42.8692 39.6848 41.8102 39.6848C40.2973 39.6848 38.9357 38.6258 38.9357 36.8103C38.9357 34.9948 40.2973 33.9358 41.8102 33.9358C43.3231 33.9358 44.5334 34.8435 44.5334 36.5077V37.2642H44.3821ZM39.9947 36.3564H43.1718C43.1718 35.4487 42.4153 34.8435 41.6589 34.8435C40.9024 34.8435 39.9947 35.4487 39.9947 36.3564Z" fill="black"/>
<path d="M46.954 39.6848H45.7437V33.9358H46.954V35.1461C47.2565 34.3897 48.013 33.9358 48.7694 33.9358V35.1461C46.0462 35.1461 47.2565 38.9284 46.954 39.6848Z" fill="black"/>
</svg>
