<svg width="209" height="172" viewBox="0 0 209 172" fill="none" xmlns="http://www.w3.org/2000/svg">
<path fill-rule="evenodd" clip-rule="evenodd" d="M106.524 4.55935C127.933 0.617725 147.529 17.04 162.726 32.6257C177.704 47.9859 189.024 67.377 188.694 88.8283C188.368 110.006 178.214 130.957 161.022 143.327C145.638 154.396 125.294 150.577 106.524 147.951C91.1182 145.796 78.2899 138.659 65.4003 129.951C47.5997 117.926 18.3649 110.301 19.0098 88.8283C19.6577 67.2534 52.2501 65.0746 67.7982 50.103C82.7205 35.734 86.1502 8.31029 106.524 4.55935Z" fill="#FDEAF8"/>
<g filter="url(#filter0_d_786_6488)">
<path d="M169.431 29.7285H39.05C36.993 29.7285 35.3254 31.3961 35.3254 33.4531V126.004C35.3254 128.061 36.993 129.729 39.05 129.729H169.431C171.488 129.729 173.155 128.061 173.155 126.004V33.4531C173.155 31.3961 171.488 29.7285 169.431 29.7285Z" fill="white"/>
</g>
<path d="M89.5355 92.4047V100.911H88.252V92.4047H89.5355ZM92.5469 97.1233V100.911H91.305V94.5314H92.4971V95.5698H92.576C92.7228 95.232 92.9526 94.9606 93.2655 94.7557C93.5812 94.5508 93.9786 94.4483 94.4576 94.4483C94.8924 94.4483 95.2732 94.5397 95.5999 94.7224C95.9267 94.9024 96.18 95.171 96.36 95.5283C96.54 95.8855 96.63 96.3272 96.63 96.8533V100.911H95.3881V97.0028C95.3881 96.5404 95.2676 96.179 95.0267 95.9187C94.7858 95.6557 94.4549 95.5241 94.034 95.5241C93.746 95.5241 93.4898 95.5864 93.2655 95.711C93.044 95.8356 92.8681 96.0184 92.738 96.2593C92.6106 96.4975 92.5469 96.7855 92.5469 97.1233ZM103.077 96.089L101.951 96.2884C101.904 96.1444 101.829 96.0073 101.727 95.8772C101.627 95.747 101.491 95.6404 101.32 95.5573C101.148 95.4743 100.933 95.4327 100.676 95.4327C100.324 95.4327 100.031 95.5117 99.7952 95.6695C99.5598 95.8246 99.4421 96.0253 99.4421 96.2718C99.4421 96.485 99.521 96.6567 99.6789 96.7868C99.8367 96.917 100.091 97.0236 100.443 97.1067L101.457 97.3393C102.044 97.475 102.481 97.6841 102.769 97.9665C103.057 98.249 103.201 98.6159 103.201 99.0672C103.201 99.4494 103.09 99.79 102.869 100.089C102.65 100.385 102.344 100.618 101.951 100.787C101.561 100.956 101.108 101.04 100.593 101.04C99.8782 101.04 99.2953 100.888 98.844 100.583C98.3926 100.276 98.1157 99.8398 98.0132 99.2749L99.2137 99.0922C99.2884 99.4051 99.4421 99.6418 99.6747 99.8025C99.9073 99.9603 100.211 100.039 100.584 100.039C100.991 100.039 101.317 99.9548 101.561 99.7858C101.804 99.6142 101.926 99.4051 101.926 99.1586C101.926 98.9592 101.851 98.7917 101.702 98.656C101.555 98.5203 101.329 98.4179 101.025 98.3487L99.9447 98.1119C99.3493 97.9762 98.909 97.7602 98.6238 97.4639C98.3414 97.1676 98.2001 96.7924 98.2001 96.3382C98.2001 95.9616 98.3054 95.6321 98.5158 95.3497C98.7263 95.0672 99.017 94.8471 99.3881 94.6892C99.7592 94.5286 100.184 94.4483 100.663 94.4483C101.353 94.4483 101.896 94.5978 102.292 94.8969C102.688 95.1932 102.949 95.5906 103.077 96.089ZM107.545 94.5314V95.5283H104.06V94.5314H107.545ZM104.995 93.0028H106.237V99.0382C106.237 99.2791 106.273 99.4605 106.345 99.5823C106.417 99.7014 106.509 99.7831 106.623 99.8274C106.739 99.8689 106.865 99.8897 107.001 99.8897C107.101 99.8897 107.188 99.8828 107.263 99.8689C107.337 99.8551 107.395 99.844 107.437 99.8357L107.661 100.862C107.589 100.889 107.487 100.917 107.354 100.945C107.221 100.975 107.055 100.992 106.855 100.995C106.529 101 106.224 100.942 105.942 100.82C105.659 100.698 105.431 100.51 105.256 100.255C105.082 100 104.995 99.6806 104.995 99.2957V93.0028ZM110.776 101.053C110.371 101.053 110.006 100.978 109.679 100.828C109.352 100.676 109.093 100.456 108.902 100.168C108.714 99.88 108.62 99.5269 108.62 99.1088C108.62 98.7488 108.689 98.4525 108.827 98.2199C108.966 97.9873 109.153 97.8031 109.388 97.6674C109.624 97.5318 109.887 97.4293 110.177 97.3601C110.468 97.2908 110.764 97.2382 111.066 97.2022C111.448 97.1579 111.759 97.1219 111.997 97.0942C112.235 97.0638 112.408 97.0153 112.516 96.9488C112.624 96.8824 112.678 96.7744 112.678 96.6249V96.5958C112.678 96.233 112.575 95.952 112.371 95.7526C112.168 95.5532 111.867 95.4535 111.465 95.4535C111.047 95.4535 110.717 95.5463 110.476 95.7318C110.238 95.9146 110.074 96.1181 109.982 96.3424L108.815 96.0766C108.953 95.6889 109.156 95.376 109.421 95.1378C109.69 94.8969 109.999 94.7224 110.348 94.6145C110.697 94.5037 111.064 94.4483 111.448 94.4483C111.703 94.4483 111.973 94.4788 112.258 94.5397C112.546 94.5978 112.815 94.7058 113.064 94.8637C113.316 95.0215 113.523 95.2472 113.683 95.5407C113.844 95.8315 113.924 96.2095 113.924 96.6747V100.911H112.711V100.039H112.661C112.581 100.2 112.461 100.358 112.3 100.513C112.139 100.668 111.933 100.797 111.681 100.899C111.429 101.001 111.127 101.053 110.776 101.053ZM111.046 100.056C111.389 100.056 111.682 99.988 111.926 99.8523C112.173 99.7166 112.36 99.5394 112.487 99.3206C112.617 99.0991 112.682 98.8623 112.682 98.6103V97.7879C112.638 97.8322 112.552 97.8737 112.425 97.9125C112.3 97.9485 112.157 97.9804 111.997 98.008C111.836 98.033 111.68 98.0565 111.527 98.0787C111.375 98.098 111.248 98.1147 111.145 98.1285C110.904 98.159 110.684 98.2102 110.485 98.2822C110.288 98.3542 110.13 98.458 110.011 98.5937C109.895 98.7266 109.837 98.9039 109.837 99.1254C109.837 99.4328 109.95 99.6654 110.177 99.8232C110.404 99.9783 110.694 100.056 111.046 100.056ZM116.82 92.4047V100.911H115.578V92.4047H116.82ZM119.733 92.4047V100.911H118.491V92.4047H119.733Z" fill="#252525"/>
<path d="M169.426 29.7285H39.05C38.5605 29.7285 38.0758 29.825 37.6236 30.0125C37.1714 30.2 36.7605 30.4748 36.4146 30.8212C36.0687 31.1675 35.7944 31.5787 35.6076 32.0312C35.4207 32.4836 35.3248 32.9685 35.3254 33.458V40.6226H173.156V33.458C173.156 32.4689 172.763 31.5203 172.063 30.8209C171.364 30.1214 170.415 29.7285 169.426 29.7285Z" fill="url(#paint0_linear_786_6488)"/>
<path d="M42.3331 35.1806C42.3341 35.5032 42.2392 35.8189 42.0606 36.0876C41.8819 36.3562 41.6275 36.5658 41.3296 36.6897C41.0317 36.8137 40.7038 36.8463 40.3873 36.7836C40.0708 36.7209 39.78 36.5656 39.5519 36.3375C39.3237 36.1094 39.1685 35.8186 39.1058 35.5021C39.0431 35.1856 39.0757 34.8576 39.1997 34.5597C39.3236 34.2618 39.5332 34.0074 39.8018 33.8288C40.0705 33.6502 40.3862 33.5553 40.7088 33.5563C41.1392 33.5576 41.5516 33.7291 41.8559 34.0335C42.1603 34.3378 42.3318 34.7502 42.3331 35.1806Z" fill="url(#paint1_linear_786_6488)"/>
<path d="M47.6869 35.1806C47.6878 35.503 47.5931 35.8185 47.4147 36.087C47.2363 36.3556 46.9822 36.5652 46.6845 36.6893C46.3869 36.8133 46.0592 36.8463 45.7428 36.784C45.4265 36.7217 45.1357 36.5669 44.9074 36.3392C44.679 36.1116 44.5234 35.8213 44.4601 35.5051C44.3969 35.189 44.4288 34.8611 44.552 34.5631C44.6752 34.2652 44.884 34.0104 45.152 33.8312C45.42 33.652 45.7352 33.5563 46.0577 33.5563C46.4889 33.5563 46.9026 33.7272 47.208 34.0317C47.5134 34.3362 47.6856 34.7493 47.6869 35.1806Z" fill="url(#paint2_linear_786_6488)"/>
<path d="M53.0406 35.1806C53.0416 35.503 52.9469 35.8185 52.7685 36.087C52.59 36.3556 52.3359 36.5652 52.0383 36.6893C51.7407 36.8133 51.413 36.8463 51.0966 36.784C50.7802 36.7217 50.4895 36.5669 50.2612 36.3392C50.0328 36.1116 49.8772 35.8213 49.8139 35.5051C49.7506 35.189 49.7826 34.8611 49.9058 34.5631C50.0289 34.2652 50.2378 34.0104 50.5058 33.8312C50.7738 33.652 51.089 33.5563 51.4114 33.5563C51.8427 33.5563 52.2563 33.7272 52.5617 34.0317C52.8671 34.3362 53.0393 34.7493 53.0406 35.1806Z" fill="url(#paint3_linear_786_6488)"/>
<path d="M135.939 116.459H72.5371C71.4959 116.459 70.4974 116.045 69.7612 115.309C69.0249 114.573 68.6113 113.574 68.6113 112.533V112.459C68.6113 111.418 69.0249 110.42 69.7612 109.683C70.4974 108.947 71.4959 108.533 72.5371 108.533H135.939C136.98 108.533 137.979 108.947 138.715 109.683C139.451 110.42 139.865 111.418 139.865 112.459V112.533C139.865 113.048 139.763 113.559 139.566 114.035C139.369 114.512 139.079 114.944 138.715 115.309C138.35 115.673 137.917 115.963 137.441 116.16C136.965 116.357 136.454 116.459 135.939 116.459ZM72.5371 109.063C71.6261 109.063 70.7524 109.425 70.1082 110.07C69.464 110.714 69.1021 111.587 69.1021 112.499V112.572C69.1021 113.483 69.464 114.357 70.1082 115.001C70.7524 115.645 71.6261 116.007 72.5371 116.007H135.939C136.85 116.007 137.724 115.645 138.368 115.001C139.012 114.357 139.374 113.483 139.374 112.572V112.499C139.374 111.587 139.012 110.714 138.368 110.07C137.724 109.425 136.85 109.063 135.939 109.063H72.5371Z" fill="#EE2FB8"/>
<path d="M98.0696 113.239C98.0696 114.25 97.2501 115.07 96.2392 115.07V115.07C95.2283 115.07 94.4088 114.25 94.4088 113.239V111.792C94.4088 110.781 95.2283 109.961 96.2392 109.961V109.961C97.2501 109.961 98.0696 110.781 98.0696 111.792V113.239ZM93.1918 111.792C93.1918 110.781 92.3723 109.961 91.3614 109.961V109.961C90.3505 109.961 89.531 110.781 89.531 111.792V113.239C89.531 114.25 90.3505 115.07 91.3614 115.07V115.07C92.3723 115.07 93.1918 114.25 93.1918 113.239V111.792ZM83.4362 111.792C83.4362 110.781 82.6167 109.961 81.6058 109.961V109.961C80.5949 109.961 79.7754 110.781 79.7754 111.792V113.239C79.7754 114.25 80.5949 115.07 81.6058 115.07V115.07C82.6167 115.07 83.4362 114.25 83.4362 113.239V111.792ZM74.8976 113.239C74.8976 114.25 75.7171 115.07 76.728 115.07V115.07C77.7389 115.07 78.5584 114.25 78.5584 113.239V111.792C78.5584 110.781 77.7389 109.961 76.728 109.961V109.961C75.7171 109.961 74.8976 110.781 74.8976 111.792V113.239ZM88.314 111.792C88.314 110.781 87.4945 109.961 86.4836 109.961V109.961C85.4727 109.961 84.6532 110.781 84.6532 111.792V113.239C84.6532 114.25 85.4727 115.07 86.4836 115.07V115.07C87.4945 115.07 88.314 114.25 88.314 113.239V111.792ZM73.6806 111.105C73.6806 110.473 73.1687 109.961 72.5372 109.961V109.961C71.8699 109.963 71.2304 110.228 70.7585 110.7C70.2867 111.172 70.0211 111.811 70.0198 112.479V112.552C70.0211 113.22 70.2867 113.859 70.7585 114.331C71.2304 114.803 71.8699 115.068 72.5372 115.07V115.07C73.1687 115.07 73.6806 114.558 73.6806 113.926V111.105ZM112.703 111.792C112.703 110.781 111.884 109.961 110.873 109.961V109.961C109.862 109.961 109.042 110.781 109.042 111.792V113.239C109.042 114.25 109.862 115.07 110.873 115.07V115.07C111.884 115.07 112.703 114.25 112.703 113.239V111.792ZM102.949 111.788C102.948 110.779 102.13 109.961 101.12 109.961V109.961C100.11 109.961 99.2915 110.78 99.2915 111.79V113.24C99.2915 114.251 100.111 115.07 101.121 115.07V115.07C102.132 115.07 102.952 114.25 102.951 113.238L102.949 111.788ZM107.825 111.792C107.825 110.781 107.006 109.961 105.995 109.961V109.961C104.984 109.961 104.164 110.781 104.164 111.792V113.239C104.164 114.25 104.984 115.07 105.995 115.07V115.07C107.006 115.07 107.825 114.25 107.825 113.239V111.792Z" fill="#EE2FB8"/>
<path opacity="0.5" d="M102.082 54.2347C102.082 54.6624 102.208 55.0805 102.446 55.4361C102.684 55.7918 103.021 56.069 103.417 56.2326C103.812 56.3963 104.246 56.4391 104.666 56.3557C105.085 56.2722 105.471 56.0663 105.773 55.7638C106.076 55.4614 106.282 55.0761 106.365 54.6566C106.449 54.2371 106.406 53.8023 106.242 53.4071C106.078 53.012 105.801 52.6742 105.446 52.4366C105.09 52.199 104.672 52.0721 104.244 52.0721C103.671 52.0721 103.12 52.3 102.715 52.7055C102.309 53.1111 102.082 53.6612 102.082 54.2347Z" fill="#EE2FB8" fill-opacity="0.1"/>
<path opacity="0.55" d="M95.1831 56.2747C95.1831 56.7024 95.3099 57.1206 95.5475 57.4762C95.7852 57.8318 96.1229 58.109 96.5181 58.2727C96.9132 58.4364 97.3481 58.4792 97.7675 58.3957C98.187 58.3123 98.5723 58.1063 98.8748 57.8039C99.1772 57.5015 99.3832 57.1161 99.4666 56.6966C99.5501 56.2771 99.5072 55.8423 99.3436 55.4472C99.1799 55.052 98.9027 54.7143 98.5471 54.4766C98.1915 54.239 97.7734 54.1122 97.3457 54.1122C96.7721 54.1122 96.222 54.34 95.8165 54.7456C95.4109 55.1511 95.1831 55.7012 95.1831 56.2747Z" fill="#EE2FB8"/>
<path opacity="0.59" d="M92.7465 63.7212C93.9409 63.7212 94.9091 62.753 94.9091 61.5587C94.9091 60.3643 93.9409 59.3961 92.7465 59.3961C91.5522 59.3961 90.584 60.3643 90.584 61.5587C90.584 62.753 91.5522 63.7212 92.7465 63.7212Z" fill="#EE2FB8" fill-opacity="0.8"/>
<path opacity="0.64" d="M91.7084 70.9369C92.9028 70.9369 93.871 69.9687 93.871 68.7744C93.871 67.58 92.9028 66.6118 91.7084 66.6118C90.5141 66.6118 89.5459 67.58 89.5459 68.7744C89.5459 69.9687 90.5141 70.9369 91.7084 70.9369Z" fill="#EE2FB8" fill-opacity="0.8"/>
<path opacity="0.68" d="M92.5159 75.2116C92.5159 75.6393 92.6427 76.0574 92.8803 76.4131C93.1179 76.7687 93.4557 77.0459 93.8508 77.2096C94.246 77.3732 94.6808 77.4161 95.1003 77.3326C95.5198 77.2492 95.9051 77.0432 96.2076 76.7408C96.51 76.4383 96.716 76.053 96.7994 75.6335C96.8828 75.214 96.84 74.7792 96.6763 74.384C96.5127 73.9889 96.2355 73.6512 95.8799 73.4135C95.5242 73.1759 95.1061 73.0491 94.6784 73.0491C94.1049 73.0491 93.5548 73.2769 93.1493 73.6825C92.7437 74.088 92.5159 74.6381 92.5159 75.2116Z" fill="#EE2FB8" fill-opacity="0.6"/>
<path opacity="0.73" d="M98.4124 79.0538C98.4124 79.4815 98.5392 79.8996 98.7768 80.2552C99.0145 80.6109 99.3522 80.888 99.7473 81.0517C100.142 81.2154 100.577 81.2582 100.997 81.1748C101.416 81.0913 101.802 80.8854 102.104 80.5829C102.407 80.2805 102.612 79.8952 102.696 79.4757C102.779 79.0562 102.737 78.6214 102.573 78.2262C102.409 77.8311 102.132 77.4933 101.776 77.2557C101.421 77.0181 101.003 76.8912 100.575 76.8912C100.001 76.8912 99.4513 77.1191 99.0457 77.5246C98.6402 77.9302 98.4124 78.4802 98.4124 79.0538Z" fill="#EE2FB8" fill-opacity="0.6"/>
<path opacity="0.77" d="M105.736 79.0538C105.736 79.4815 105.863 79.8996 106.101 80.2552C106.338 80.6109 106.676 80.888 107.071 81.0517C107.466 81.2154 107.901 81.2582 108.321 81.1748C108.74 81.0913 109.126 80.8854 109.428 80.5829C109.73 80.2805 109.936 79.8952 110.02 79.4757C110.103 79.0562 110.061 78.6214 109.897 78.2262C109.733 77.8311 109.456 77.4933 109.1 77.2557C108.745 77.0181 108.327 76.8912 107.899 76.8912C107.325 76.8912 106.775 77.1191 106.37 77.5246C105.964 77.9302 105.736 78.4802 105.736 79.0538Z" fill="#EE2FB8" fill-opacity="0.4"/>
<path opacity="0.82" d="M111.64 75.2116C111.64 75.6393 111.767 76.0574 112.004 76.4131C112.242 76.7687 112.58 77.0459 112.975 77.2096C113.37 77.3732 113.805 77.4161 114.224 77.3326C114.644 77.2492 115.029 77.0432 115.332 76.7408C115.634 76.4383 115.84 76.053 115.923 75.6335C116.007 75.214 115.964 74.7792 115.8 74.384C115.637 73.9889 115.36 73.6512 115.004 73.4135C114.648 73.1759 114.23 73.0491 113.802 73.0491C113.229 73.0491 112.679 73.2769 112.273 73.6825C111.868 74.088 111.64 74.6381 111.64 75.2116Z" fill="#EE2FB8" fill-opacity="0.4"/>
<path opacity="0.86" d="M116.772 70.9369C117.967 70.9369 118.935 69.9687 118.935 68.7744C118.935 67.58 117.967 66.6118 116.772 66.6118C115.578 66.6118 114.61 67.58 114.61 68.7744C114.61 69.9687 115.578 70.9369 116.772 70.9369Z" fill="#EE2FB8" fill-opacity="0.2"/>
<path opacity="0.91" d="M115.734 63.7212C116.929 63.7212 117.897 62.753 117.897 61.5587C117.897 60.3643 116.929 59.3961 115.734 59.3961C114.54 59.3961 113.572 60.3643 113.572 61.5587C113.572 62.753 114.54 63.7212 115.734 63.7212Z" fill="#EE2FB8" fill-opacity="0.2"/>
<path opacity="0.95" d="M108.98 56.2747C108.98 56.7024 109.107 57.1206 109.344 57.4762C109.582 57.8318 109.92 58.109 110.315 58.2727C110.71 58.4364 111.145 58.4792 111.564 58.3957C111.984 58.3123 112.369 58.1063 112.672 57.8039C112.974 57.5015 113.18 57.1161 113.264 56.6966C113.347 56.2771 113.304 55.8423 113.14 55.4472C112.977 55.052 112.7 54.7143 112.344 54.4766C111.988 54.239 111.57 54.1122 111.143 54.1122C110.569 54.1122 110.019 54.34 109.613 54.7456C109.208 55.1511 108.98 55.7012 108.98 56.2747Z" fill="#EE2FB8" fill-opacity="0.1"/>
<defs>
<filter id="filter0_d_786_6488" x="0.0850639" y="0.895482" width="208.311" height="170.481" filterUnits="userSpaceOnUse" color-interpolation-filters="sRGB">
<feFlood flood-opacity="0" result="BackgroundImageFix"/>
<feColorMatrix in="SourceAlpha" type="matrix" values="0 0 0 0 0 0 0 0 0 0 0 0 0 0 0 0 0 0 127 0" result="hardAlpha"/>
<feOffset dy="6.40734"/>
<feGaussianBlur stdDeviation="17.6202"/>
<feComposite in2="hardAlpha" operator="out"/>
<feColorMatrix type="matrix" values="0 0 0 0 0 0 0 0 0 0 0 0 0 0 0 0 0 0 0.1 0"/>
<feBlend mode="normal" in2="BackgroundImageFix" result="effect1_dropShadow_786_6488"/>
<feBlend mode="normal" in="SourceGraphic" in2="effect1_dropShadow_786_6488" result="shape"/>
</filter>
<linearGradient id="paint0_linear_786_6488" x1="35.3254" y1="29.7285" x2="52.7279" y2="81.2777" gradientUnits="userSpaceOnUse">
<stop stop-color="#832FEE"/>
<stop offset="1" stop-color="#EE2FB8"/>
</linearGradient>
<linearGradient id="paint1_linear_786_6488" x1="40.6156" y1="37.5017" x2="40.7873" y2="33.0361" gradientUnits="userSpaceOnUse">
<stop stop-color="#00D0F1"/>
<stop offset="0.01" stop-color="#09D2F2"/>
<stop offset="0.05" stop-color="#37DAF4"/>
<stop offset="0.09" stop-color="#62E2F6"/>
<stop offset="0.14" stop-color="#88E9F8"/>
<stop offset="0.19" stop-color="#A8EFFA"/>
<stop offset="0.25" stop-color="#C4F4FC"/>
<stop offset="0.32" stop-color="#DAF8FD"/>
<stop offset="0.4" stop-color="#EBFBFE"/>
<stop offset="0.49" stop-color="#F6FDFF"/>
<stop offset="0.62" stop-color="#FDFFFF"/>
<stop offset="0.99" stop-color="white"/>
</linearGradient>
<linearGradient id="paint2_linear_786_6488" x1="45.9693" y1="37.5017" x2="46.1411" y2="33.0361" gradientUnits="userSpaceOnUse">
<stop stop-color="#00D0F1"/>
<stop offset="0.01" stop-color="#09D2F2"/>
<stop offset="0.05" stop-color="#37DAF4"/>
<stop offset="0.09" stop-color="#62E2F6"/>
<stop offset="0.14" stop-color="#88E9F8"/>
<stop offset="0.19" stop-color="#A8EFFA"/>
<stop offset="0.25" stop-color="#C4F4FC"/>
<stop offset="0.32" stop-color="#DAF8FD"/>
<stop offset="0.4" stop-color="#EBFBFE"/>
<stop offset="0.49" stop-color="#F6FDFF"/>
<stop offset="0.62" stop-color="#FDFFFF"/>
<stop offset="0.99" stop-color="white"/>
</linearGradient>
<linearGradient id="paint3_linear_786_6488" x1="51.3231" y1="37.5017" x2="51.4949" y2="33.0361" gradientUnits="userSpaceOnUse">
<stop stop-color="#00D0F1"/>
<stop offset="0.01" stop-color="#09D2F2"/>
<stop offset="0.05" stop-color="#37DAF4"/>
<stop offset="0.09" stop-color="#62E2F6"/>
<stop offset="0.14" stop-color="#88E9F8"/>
<stop offset="0.19" stop-color="#A8EFFA"/>
<stop offset="0.25" stop-color="#C4F4FC"/>
<stop offset="0.32" stop-color="#DAF8FD"/>
<stop offset="0.4" stop-color="#EBFBFE"/>
<stop offset="0.49" stop-color="#F6FDFF"/>
<stop offset="0.62" stop-color="#FDFFFF"/>
<stop offset="0.99" stop-color="white"/>
</linearGradient>
</defs>
</svg>
