<svg width="208" height="172" viewBox="0 0 208 172" fill="none" xmlns="http://www.w3.org/2000/svg">
<path fill-rule="evenodd" clip-rule="evenodd" d="M106.524 4.55935C127.933 0.617725 147.529 17.04 162.727 32.6257C177.704 47.9859 189.025 67.377 188.695 88.8283C188.369 110.006 178.215 130.957 161.023 143.327C145.638 154.396 125.294 150.577 106.524 147.951C91.1187 145.796 78.2904 138.659 65.4008 129.951C47.6002 117.926 18.3654 110.301 19.0102 88.8283C19.6582 67.2534 52.2506 65.0746 67.7987 50.103C82.721 35.734 86.1507 8.31029 106.524 4.55935Z" fill="#FDEAF8"/>
<g filter="url(#filter0_d_786_6489)">
<path d="M48.1404 57.0032C45.1187 57.0032 42.686 59.4358 42.686 62.4576V115.183H137.229V62.4576C137.229 59.4358 134.796 57.0032 131.775 57.0032H48.1404Z" fill="white"/>
</g>
<path d="M55.4127 64.2759C52.391 64.2759 49.9583 66.7085 49.9583 69.7303V118.456C49.9583 120.665 51.7491 122.456 53.9583 122.456H125.956C128.165 122.456 129.956 120.665 129.956 118.456V69.7303C129.956 66.7085 127.523 64.2759 124.502 64.2759H55.4127Z" fill="#EE2FB8"/>
<g filter="url(#filter1_d_786_6489)">
<path d="M140.865 115.184C142.873 115.184 144.501 116.812 144.501 118.82V118.82C144.501 124.845 139.617 129.729 133.592 129.729H46.3221C40.2974 129.729 35.4133 124.845 35.4133 118.82V118.82C35.4133 116.812 37.0414 115.184 39.0496 115.184H140.865Z" fill="white"/>
</g>
<g filter="url(#filter2_d_786_6489)">
<path d="M94.5035 29.7313H167.229C170.251 29.7313 172.683 32.164 172.683 35.1857V95.1841C172.683 98.2058 170.251 100.638 167.229 100.638H94.5035C91.4818 100.638 89.0491 98.2058 89.0491 95.1841V35.1857C89.0491 32.164 91.4818 29.7313 94.5035 29.7313Z" fill="white"/>
</g>
<path d="M89.0491 44.2764V35.1857C89.0491 32.164 91.4818 29.7313 94.5035 29.7313H167.229C170.251 29.7313 172.683 32.164 172.683 35.1857V44.2764H89.0491Z" fill="url(#paint0_linear_786_6489)"/>
<path d="M98.1397 37.0036C98.1397 38.0077 97.3257 38.8217 96.3216 38.8217C95.3175 38.8217 94.5034 38.0077 94.5034 37.0036C94.5034 35.9994 95.3175 35.1854 96.3216 35.1854C97.3257 35.1854 98.1397 35.9994 98.1397 37.0036Z" fill="#E4EFF8"/>
<path d="M105.412 37.0036C105.412 38.0077 104.598 38.8217 103.594 38.8217C102.59 38.8217 101.776 38.0077 101.776 37.0036C101.776 35.9994 102.59 35.1854 103.594 35.1854C104.598 35.1854 105.412 35.9994 105.412 37.0036Z" fill="#E4EFF8"/>
<path d="M112.685 37.0036C112.685 38.0077 111.871 38.8217 110.866 38.8217C109.862 38.8217 109.048 38.0077 109.048 37.0036C109.048 35.9994 109.862 35.1854 110.866 35.1854C111.871 35.1854 112.685 35.9994 112.685 37.0036Z" fill="#E4EFF8"/>
<path d="M116.32 29.7285V44.2772H119.957V29.7285H116.32Z" fill="#E4EFF8"/>
<path d="M127.231 60.6376C124.807 60.6376 124.807 64.2747 127.231 64.2747H161.778C164.203 64.2747 164.203 60.6376 161.778 60.6376H127.231Z" fill="#EE2FB8" fill-opacity="0.2"/>
<path d="M127.258 53.3634C124.829 53.3589 124.829 57.005 127.258 57.0006H152.678C155.108 57.005 155.108 53.3589 152.678 53.3634H127.258Z" fill="#EE2FB8" fill-opacity="0.2"/>
<path d="M116.321 86.0933C116.321 88.1078 114.699 89.7296 112.685 89.7296H103.594C101.58 89.7296 99.9578 88.1078 99.9578 86.0933V78.8208C99.9578 76.9513 101.393 75.0566 103.174 75.1308C103.455 75.1425 103.736 75.1845 104.018 75.1845L112.321 75.1844C114.53 75.1844 116.321 76.9752 116.321 79.1844V86.0933Z" fill="#EE2FB8"/>
<path d="M111.739 77.8739C111.268 77.8884 110.82 78.0858 110.491 78.4242L106.331 82.5848L105.794 82.0614C104.076 80.3395 101.495 82.9203 103.217 84.6383L105.042 86.4501C105.753 87.1638 106.909 87.1638 107.619 86.4501L113.068 81.0011C114.271 79.8431 113.408 77.8117 111.739 77.8739Z" fill="white"/>
<path d="M116.321 62.4576C116.321 64.4721 114.699 66.0939 112.685 66.0939H103.594C101.58 66.0939 99.9578 64.4721 99.9578 62.4576V55.1853C99.9578 53.3158 101.393 51.4211 103.174 51.4953C103.455 51.507 103.736 51.549 104.018 51.549L112.321 51.5489C114.53 51.5489 116.321 53.3397 116.321 55.5489V62.4576Z" fill="#EE2FB8"/>
<path d="M111.759 54.2386C111.287 54.2531 110.84 54.4504 110.511 54.7888L106.35 58.9494L105.814 58.426C104.106 56.5961 101.416 59.2722 103.237 60.9895L105.062 62.8148C105.773 63.5285 106.928 63.5285 107.639 62.8148L113.088 57.3657C114.291 56.2078 113.428 54.1763 111.759 54.2386Z" fill="white"/>
<path d="M127.231 86.0942C124.807 86.0942 124.807 89.7314 127.231 89.7314H161.778C164.203 89.7314 164.203 86.0942 161.778 86.0942H127.231Z" fill="#EE2FB8" fill-opacity="0.2"/>
<path d="M127.258 78.8201C124.829 78.8156 124.829 82.4617 127.258 82.4572H152.678C155.108 82.4617 155.108 78.8156 152.678 78.8201H127.258Z" fill="#EE2FB8" fill-opacity="0.2"/>
<defs>
<filter id="filter0_d_786_6489" x="7.44566" y="28.1701" width="165.024" height="128.661" filterUnits="userSpaceOnUse" color-interpolation-filters="sRGB">
<feFlood flood-opacity="0" result="BackgroundImageFix"/>
<feColorMatrix in="SourceAlpha" type="matrix" values="0 0 0 0 0 0 0 0 0 0 0 0 0 0 0 0 0 0 127 0" result="hardAlpha"/>
<feOffset dy="6.40734"/>
<feGaussianBlur stdDeviation="17.6202"/>
<feComposite in2="hardAlpha" operator="out"/>
<feColorMatrix type="matrix" values="0 0 0 0 0 0 0 0 0 0 0 0 0 0 0 0 0 0 0.1 0"/>
<feBlend mode="normal" in2="BackgroundImageFix" result="effect1_dropShadow_786_6489"/>
<feBlend mode="normal" in="SourceGraphic" in2="effect1_dropShadow_786_6489" result="shape"/>
</filter>
<filter id="filter1_d_786_6489" x="0.172955" y="86.3506" width="179.569" height="85.0258" filterUnits="userSpaceOnUse" color-interpolation-filters="sRGB">
<feFlood flood-opacity="0" result="BackgroundImageFix"/>
<feColorMatrix in="SourceAlpha" type="matrix" values="0 0 0 0 0 0 0 0 0 0 0 0 0 0 0 0 0 0 127 0" result="hardAlpha"/>
<feOffset dy="6.40734"/>
<feGaussianBlur stdDeviation="17.6202"/>
<feComposite in2="hardAlpha" operator="out"/>
<feColorMatrix type="matrix" values="0 0 0 0 0 0 0 0 0 0 0 0 0 0 0 0 0 0 0.1 0"/>
<feBlend mode="normal" in2="BackgroundImageFix" result="effect1_dropShadow_786_6489"/>
<feBlend mode="normal" in="SourceGraphic" in2="effect1_dropShadow_786_6489" result="shape"/>
</filter>
<filter id="filter2_d_786_6489" x="53.8087" y="0.89829" width="154.115" height="141.388" filterUnits="userSpaceOnUse" color-interpolation-filters="sRGB">
<feFlood flood-opacity="0" result="BackgroundImageFix"/>
<feColorMatrix in="SourceAlpha" type="matrix" values="0 0 0 0 0 0 0 0 0 0 0 0 0 0 0 0 0 0 127 0" result="hardAlpha"/>
<feOffset dy="6.40734"/>
<feGaussianBlur stdDeviation="17.6202"/>
<feComposite in2="hardAlpha" operator="out"/>
<feColorMatrix type="matrix" values="0 0 0 0 0 0 0 0 0 0 0 0 0 0 0 0 0 0 0.1 0"/>
<feBlend mode="normal" in2="BackgroundImageFix" result="effect1_dropShadow_786_6489"/>
<feBlend mode="normal" in="SourceGraphic" in2="effect1_dropShadow_786_6489" result="shape"/>
</filter>
<linearGradient id="paint0_linear_786_6489" x1="89.0491" y1="29.7313" x2="125.749" y2="79.139" gradientUnits="userSpaceOnUse">
<stop stop-color="#832FEE"/>
<stop offset="1" stop-color="#EE2FB8"/>
</linearGradient>
</defs>
</svg>
