<svg width="181" height="155" viewBox="0 0 181 155" fill="none" xmlns="http://www.w3.org/2000/svg">
<path fill-rule="evenodd" clip-rule="evenodd" d="M98.524 1.55935C119.933 -2.38227 139.529 14.04 154.727 29.6257C169.704 44.9859 181.025 64.377 180.695 85.8283C180.369 107.006 170.215 127.957 153.023 140.327C137.638 151.396 117.294 147.577 98.524 144.951C83.1187 142.796 70.2904 135.659 57.4008 126.951C39.6002 114.926 10.3654 107.301 11.0102 85.8283C11.6582 64.2534 44.2506 62.0746 59.7987 47.103C74.721 32.734 78.1507 5.31029 98.524 1.55935Z" fill="#FDEAF8"/>
<path d="M78.7964 112.933L76.28 122.999C75.8067 124.892 77.2388 126.726 79.1905 126.726H92.1955C94.1472 126.726 95.5793 124.892 95.1059 122.998L92.5895 112.933V111.209H78.7964V112.933Z" fill="url(#paint0_linear_786_6490)"/>
<g filter="url(#filter0_d_786_6490)">
<path d="M42.5904 40.5211H128.795C132.604 40.5211 135.691 43.6087 135.691 47.4175V106.036C135.691 109.845 132.604 112.933 128.795 112.933H42.5904C38.7817 112.933 35.6941 109.845 35.6941 106.036V47.4175C35.6941 43.6087 38.7817 40.5211 42.5904 40.5211Z" fill="white"/>
</g>
<g filter="url(#filter1_d_786_6490)">
<path d="M35.6941 106.037C35.6941 109.845 38.7817 112.933 42.5904 112.933H128.795C132.604 112.933 135.691 109.845 135.691 106.037V102.588H35.6941V106.037Z" fill="url(#paint1_linear_786_6490)"/>
</g>
<path d="M152.836 61.2103C154.593 61.2103 156.018 59.7856 156.018 58.0282V54.048C156.018 52.2905 154.593 50.8657 152.835 50.8657V50.8657C151.341 50.8657 150.069 49.8175 149.595 48.4003C149.236 47.3261 148.801 46.2787 148.294 45.266C147.622 43.9264 147.779 42.2809 148.838 41.2214V41.2214C150.082 39.9777 150.082 37.9613 148.838 36.7176L146.029 33.9079C144.785 32.6642 142.768 32.6642 141.525 33.9079V33.9079C140.465 34.9673 138.82 35.1238 137.48 34.4527C136.467 33.9453 135.42 33.5103 134.346 33.1509C132.929 32.6767 131.88 31.4051 131.88 29.9107V29.9107C131.88 28.1532 130.456 26.7285 128.698 26.7285H124.718C122.961 26.7285 121.536 28.1532 121.536 29.9107V29.9107C121.536 31.4051 120.488 32.6767 119.07 33.1509C117.996 33.5103 116.949 33.9453 115.936 34.4527C114.597 35.1238 112.951 34.9673 111.892 33.9079V33.9079C110.648 32.6642 108.631 32.6642 107.388 33.9079L104.578 36.7176C103.334 37.9613 103.334 39.9777 104.578 41.2214V41.2214C105.637 42.2809 105.794 43.9264 105.123 45.266C104.615 46.2787 104.18 47.3261 103.821 48.4003C103.347 49.8175 102.075 50.8657 100.581 50.8657V50.8657C98.8234 50.8657 97.3987 52.2905 97.3987 54.048V58.028C97.3987 59.7855 98.8234 61.2103 100.581 61.2103V61.2103C102.075 61.2103 103.347 62.2585 103.821 63.6757C104.18 64.7499 104.615 65.7973 105.123 66.81C105.794 68.1496 105.637 69.7951 104.578 70.8546V70.8546C103.334 72.0983 103.334 74.1147 104.578 75.3584L107.388 78.1685C108.632 79.4119 110.648 79.4117 111.891 78.168V78.168C112.95 77.1087 114.595 76.9519 115.934 77.6228C116.947 78.1305 117.995 78.5658 119.07 78.9253C120.487 79.3994 121.536 80.671 121.536 82.1655V82.1655C121.536 83.9228 122.961 85.3475 124.718 85.3475H128.698C130.456 85.3475 131.88 83.9228 131.88 82.1653V82.1653C131.88 80.6709 132.929 79.3993 134.346 78.9251C135.42 78.5657 136.467 78.1307 137.48 77.6233C138.82 76.9522 140.465 77.1087 141.525 78.1682V78.1682C142.768 79.4118 144.785 79.4118 146.029 78.1682L148.839 75.358C150.082 74.1146 150.082 72.0986 148.838 70.8554V70.8554C147.779 69.7965 147.622 68.1515 148.293 66.8123C148.801 65.7989 149.236 64.7508 149.595 63.6759C150.07 62.2587 151.341 61.2103 152.836 61.2103V61.2103ZM126.708 68.1066C120.043 68.1066 114.64 62.7033 114.64 56.038C114.64 49.3727 120.043 43.9694 126.708 43.9694C133.373 43.9694 138.777 49.3727 138.777 56.038C138.777 62.7033 133.373 68.1066 126.708 68.1066Z" fill="#EE2FB8"/>
<path d="M93.8109 78.4513C93.8059 77.8136 93.757 77.1772 93.6643 76.5462L97.5349 74.3049L92.3627 65.3396L88.4938 67.581C87.4867 66.7939 86.3749 66.151 85.1905 65.6707V61.2104H74.8459V65.6707C73.6611 66.1536 72.5492 66.7995 71.5426 67.5896L67.6737 65.3483L62.5015 74.3135L66.372 76.5548C66.1766 77.8173 66.1766 79.1026 66.372 80.3651L62.5015 82.5891L67.6737 91.5544L71.5426 89.3131C72.5492 90.1031 73.6611 90.749 74.8459 91.232V95.6922H85.1905V91.232C86.3753 90.749 87.4872 90.1031 88.4938 89.3131L92.3627 91.5544L97.5349 82.5891L93.6643 80.3478C93.7566 79.7198 93.8055 79.086 93.8109 78.4513ZM80.0182 85.3477C76.2095 85.3477 73.1218 82.26 73.1218 78.4513C73.1218 74.6426 76.2095 71.555 80.0182 71.555C83.8269 71.555 86.9145 74.6426 86.9145 78.4513C86.9145 82.26 83.8269 85.3477 80.0182 85.3477Z" fill="#EE2FB8" fill-opacity="0.2"/>
<defs>
<filter id="filter0_d_786_6490" x="0.453716" y="11.6881" width="170.478" height="142.892" filterUnits="userSpaceOnUse" color-interpolation-filters="sRGB">
<feFlood flood-opacity="0" result="BackgroundImageFix"/>
<feColorMatrix in="SourceAlpha" type="matrix" values="0 0 0 0 0 0 0 0 0 0 0 0 0 0 0 0 0 0 127 0" result="hardAlpha"/>
<feOffset dy="6.40734"/>
<feGaussianBlur stdDeviation="17.6202"/>
<feComposite in2="hardAlpha" operator="out"/>
<feColorMatrix type="matrix" values="0 0 0 0 0 0 0 0 0 0 0 0 0 0 0 0 0 0 0.1 0"/>
<feBlend mode="normal" in2="BackgroundImageFix" result="effect1_dropShadow_786_6490"/>
<feBlend mode="normal" in="SourceGraphic" in2="effect1_dropShadow_786_6490" result="shape"/>
</filter>
<filter id="filter1_d_786_6490" x="31.6941" y="102.588" width="107.997" height="18.3445" filterUnits="userSpaceOnUse" color-interpolation-filters="sRGB">
<feFlood flood-opacity="0" result="BackgroundImageFix"/>
<feColorMatrix in="SourceAlpha" type="matrix" values="0 0 0 0 0 0 0 0 0 0 0 0 0 0 0 0 0 0 127 0" result="hardAlpha"/>
<feOffset dy="4"/>
<feGaussianBlur stdDeviation="2"/>
<feComposite in2="hardAlpha" operator="out"/>
<feColorMatrix type="matrix" values="0 0 0 0 0 0 0 0 0 0 0 0 0 0 0 0 0 0 0.1 0"/>
<feBlend mode="normal" in2="BackgroundImageFix" result="effect1_dropShadow_786_6490"/>
<feBlend mode="normal" in="SourceGraphic" in2="effect1_dropShadow_786_6490" result="shape"/>
</filter>
<linearGradient id="paint0_linear_786_6490" x1="75.3481" y1="111.209" x2="98.6145" y2="118.472" gradientUnits="userSpaceOnUse">
<stop stop-color="#832FEE"/>
<stop offset="1" stop-color="#EE2FB8"/>
</linearGradient>
<linearGradient id="paint1_linear_786_6490" x1="35.6941" y1="102.588" x2="55.8512" y2="148.209" gradientUnits="userSpaceOnUse">
<stop stop-color="#832FEE"/>
<stop offset="1" stop-color="#EE2FB8"/>
</linearGradient>
</defs>
</svg>
