<svg width="175" height="148" viewBox="0 0 175 148" fill="none" xmlns="http://www.w3.org/2000/svg">
<path fill-rule="evenodd" clip-rule="evenodd" d="M92.5243 1.55935C113.933 -2.38227 133.529 14.04 148.727 29.6257C163.705 44.9859 175.025 64.377 174.695 85.8283C174.369 107.006 164.215 127.957 147.023 140.327C131.639 151.396 111.294 147.577 92.5243 144.951C77.1189 142.796 64.2906 135.659 51.4011 126.951C33.6004 114.926 4.36566 107.301 5.01049 85.8283C5.6584 64.2534 38.2508 62.0746 53.799 47.103C68.7212 32.734 72.151 5.31029 92.5243 1.55935Z" fill="#FDEAF8"/>
<g filter="url(#filter0_d_786_6491)">
<path d="M120.601 44.4902C120.601 42.6568 119.114 41.1702 117.281 41.1702H42.3403C40.5068 41.1702 39.0203 42.6568 39.0203 44.4902V89.6989H120.601V44.4902Z" fill="white"/>
</g>
<path d="M88.5332 75.4771H72.6103C71.7018 75.4771 70.9585 74.7338 70.9585 73.8253C70.9585 72.9169 71.7018 72.1736 72.6103 72.1736H88.5332C89.4417 72.1736 90.185 72.9169 90.185 73.8253C90.185 74.7338 89.4417 75.4771 88.5332 75.4771Z" fill="#EE2FB8" fill-opacity="0.2"/>
<path d="M80.2249 82.8108H72.6103C71.7018 82.8108 70.9585 82.0676 70.9585 81.1591C70.9585 80.2506 71.7018 79.5073 72.6103 79.5073H80.2249C81.1333 79.5073 81.8766 80.2506 81.8766 81.1591C81.8766 82.0676 81.1333 82.8108 80.2249 82.8108Z" fill="#EE2FB8" fill-opacity="0.2"/>
<path d="M114.499 75.7415H98.5756C97.6671 75.7415 96.9238 74.9982 96.9238 74.0898C96.9238 73.1813 97.6671 72.438 98.5756 72.438H114.499C115.407 72.438 116.15 73.1813 116.15 74.0898C116.15 74.9982 115.424 75.7415 114.499 75.7415Z" fill="#EE2FB8" fill-opacity="0.2"/>
<path d="M106.19 82.811H98.5756C97.6671 82.811 96.9238 82.0677 96.9238 81.1592C96.9238 80.2507 97.6671 79.5074 98.5756 79.5074H106.19C107.099 79.5074 107.842 80.2507 107.842 81.1592C107.842 82.0677 107.115 82.811 106.19 82.811Z" fill="#EE2FB8" fill-opacity="0.2"/>
<g filter="url(#filter1_d_786_6491)">
<path d="M39.0203 89.699V100.617C39.0203 102.451 40.5068 103.937 42.3403 103.937H117.281C119.114 103.937 120.601 102.451 120.601 100.617V89.699H39.0203Z" fill="url(#paint0_linear_786_6491)"/>
</g>
<g filter="url(#filter2_d_786_6491)">
<path fill-rule="evenodd" clip-rule="evenodd" d="M91.9593 103.937H67.6619V110.825H91.9593V103.937ZM60.8567 110.825H98.7811C100.615 110.825 102.101 112.312 102.101 114.145V117.465H57.5366V114.145C57.5366 112.312 59.0232 110.825 60.8567 110.825Z" fill="url(#paint1_linear_786_6491)"/>
</g>
<path d="M44.9184 80.619C44.7333 80.619 44.5554 80.5479 44.4131 80.4126L41.9935 77.993C41.8583 77.8578 41.7871 77.6799 41.7871 77.4878C41.7871 77.2956 41.8654 77.1177 41.9935 76.9825L44.4131 74.5629C44.6906 74.2854 45.139 74.2854 45.4165 74.5629C45.6941 74.8404 45.6941 75.2888 45.4165 75.5663L43.4951 77.4878L45.4165 79.4092C45.6941 79.6868 45.6941 80.1351 45.4165 80.4126C45.2813 80.555 45.0963 80.619 44.9184 80.619Z" fill="#EE2FB8" fill-opacity="0.2"/>
<path d="M52.2342 80.619C52.0492 80.619 51.8712 80.5479 51.7289 80.4126C51.4514 80.1351 51.4514 79.6868 51.7289 79.4092L53.6504 77.4878L51.7289 75.5663C51.4514 75.2888 51.4514 74.8404 51.7289 74.5629C52.0065 74.2854 52.4548 74.2854 52.7323 74.5629L55.1519 76.9825C55.2871 77.1177 55.3583 77.2956 55.3583 77.4878C55.3583 77.6799 55.28 77.8578 55.1519 77.993L52.7323 80.4126C52.5971 80.555 52.4192 80.619 52.2342 80.619Z" fill="#EE2FB8" fill-opacity="0.2"/>
<path d="M46.4271 82.8109C46.3274 82.8109 46.2207 82.7895 46.1282 82.7468C45.7724 82.5831 45.6158 82.1561 45.7866 81.8003L50.0849 72.5845C50.2486 72.2287 50.6756 72.0721 51.0314 72.2429C51.3873 72.4066 51.5438 72.8336 51.373 73.1894L47.0747 82.4052C46.9537 82.6543 46.6975 82.8109 46.4271 82.8109Z" fill="#EE2FB8" fill-opacity="0.2"/>
<path d="M79.8189 99.867C81.5029 99.867 82.868 98.5019 82.868 96.8179C82.868 95.1339 81.5029 93.7688 79.8189 93.7688C78.1349 93.7688 76.7698 95.1339 76.7698 96.8179C76.7698 98.5019 78.1349 99.867 79.8189 99.867Z" fill="white"/>
<rect x="41.8574" y="48.054" width="74.2931" height="5.79907" rx="2.89954" fill="#FCD5F1"/>
<rect x="41.8574" y="58.095" width="74.2931" height="5.79907" rx="2.89954" fill="#FCD5F1"/>
<ellipse cx="116.153" cy="50.5468" rx="21.0517" ry="21.0517" fill="#F7BFE7"/>
<path d="M116.605 60.9945L116.398 60.6412C113.23 55.2441 104.813 43.7907 104.728 43.6756L104.606 43.5107L107.474 40.6764L116.552 47.0154C122.268 39.5983 127.6 34.5039 131.079 31.529C134.884 28.2747 137.36 26.7766 137.385 26.7622L137.442 26.7285H142.306L141.842 27.1424C129.891 37.787 116.937 60.4112 116.808 60.6385L116.605 60.9945Z" fill="#EE2FB8"/>
<defs>
<filter id="filter0_d_786_6491" x="0.602516" y="9.73746" width="158.416" height="125.364" filterUnits="userSpaceOnUse" color-interpolation-filters="sRGB">
<feFlood flood-opacity="0" result="BackgroundImageFix"/>
<feColorMatrix in="SourceAlpha" type="matrix" values="0 0 0 0 0 0 0 0 0 0 0 0 0 0 0 0 0 0 127 0" result="hardAlpha"/>
<feOffset dy="6.98505"/>
<feGaussianBlur stdDeviation="19.2089"/>
<feComposite in2="hardAlpha" operator="out"/>
<feColorMatrix type="matrix" values="0 0 0 0 0 0 0 0 0 0 0 0 0 0 0 0 0 0 0.1 0"/>
<feBlend mode="normal" in2="BackgroundImageFix" result="effect1_dropShadow_786_6491"/>
<feBlend mode="normal" in="SourceGraphic" in2="effect1_dropShadow_786_6491" result="shape"/>
</filter>
<filter id="filter1_d_786_6491" x="35.0203" y="89.699" width="89.5806" height="22.2382" filterUnits="userSpaceOnUse" color-interpolation-filters="sRGB">
<feFlood flood-opacity="0" result="BackgroundImageFix"/>
<feColorMatrix in="SourceAlpha" type="matrix" values="0 0 0 0 0 0 0 0 0 0 0 0 0 0 0 0 0 0 127 0" result="hardAlpha"/>
<feOffset dy="4"/>
<feGaussianBlur stdDeviation="2"/>
<feComposite in2="hardAlpha" operator="out"/>
<feColorMatrix type="matrix" values="0 0 0 0 0 0 0 0 0 0 0 0 0 0 0 0 0 0 0.1 0"/>
<feBlend mode="normal" in2="BackgroundImageFix" result="effect1_dropShadow_786_6491"/>
<feBlend mode="normal" in="SourceGraphic" in2="effect1_dropShadow_786_6491" result="shape"/>
</filter>
<filter id="filter2_d_786_6491" x="53.5366" y="103.937" width="52.5645" height="21.5281" filterUnits="userSpaceOnUse" color-interpolation-filters="sRGB">
<feFlood flood-opacity="0" result="BackgroundImageFix"/>
<feColorMatrix in="SourceAlpha" type="matrix" values="0 0 0 0 0 0 0 0 0 0 0 0 0 0 0 0 0 0 127 0" result="hardAlpha"/>
<feOffset dy="4"/>
<feGaussianBlur stdDeviation="2"/>
<feComposite in2="hardAlpha" operator="out"/>
<feColorMatrix type="matrix" values="0 0 0 0 0 0 0 0 0 0 0 0 0 0 0 0 0 0 0.1 0"/>
<feBlend mode="normal" in2="BackgroundImageFix" result="effect1_dropShadow_786_6491"/>
<feBlend mode="normal" in="SourceGraphic" in2="effect1_dropShadow_786_6491" result="shape"/>
</filter>
<linearGradient id="paint0_linear_786_6491" x1="39.0203" y1="89.699" x2="74.9826" y2="137.942" gradientUnits="userSpaceOnUse">
<stop stop-color="#832FEE"/>
<stop offset="1" stop-color="#EE2FB8"/>
</linearGradient>
<linearGradient id="paint1_linear_786_6491" x1="57.5366" y1="103.937" x2="92.021" y2="130.534" gradientUnits="userSpaceOnUse">
<stop stop-color="#832FEE"/>
<stop offset="1" stop-color="#EE2FB8"/>
</linearGradient>
</defs>
</svg>
